<svg width="221" height="197" viewBox="0 0 221 197" fill="none" xmlns="http://www.w3.org/2000/svg">
<circle cx="2.5" cy="194.5" r="2.5" fill="#1C4F8B" fill-opacity="0.27"/>
<circle cx="2.5" cy="170.5" r="2.5" fill="#1C4F8B" fill-opacity="0.27"/>
<circle cx="2.5" cy="146.5" r="2.5" fill="#1C4F8B" fill-opacity="0.27"/>
<circle cx="2.5" cy="122.5" r="2.5" fill="#1C4F8B" fill-opacity="0.27"/>
<circle cx="122.5" cy="194.5" r="2.5" fill="#1C4F8B" fill-opacity="0.27"/>
<circle cx="122.5" cy="170.5" r="2.5" fill="#1C4F8B" fill-opacity="0.27"/>
<circle cx="122.5" cy="146.5" r="2.5" fill="#1C4F8B" fill-opacity="0.27"/>
<circle cx="122.5" cy="122.5" r="2.5" fill="#1C4F8B" fill-opacity="0.27"/>
<circle cx="26.5" cy="194.5" r="2.5" fill="#1C4F8B" fill-opacity="0.27"/>
<circle cx="26.5" cy="170.5" r="2.5" fill="#1C4F8B" fill-opacity="0.27"/>
<circle cx="26.5" cy="146.5" r="2.5" fill="#1C4F8B" fill-opacity="0.27"/>
<circle cx="26.5" cy="122.5" r="2.5" fill="#1C4F8B" fill-opacity="0.27"/>
<circle cx="146.5" cy="194.5" r="2.5" fill="#1C4F8B" fill-opacity="0.27"/>
<circle cx="146.5" cy="170.5" r="2.5" fill="#1C4F8B" fill-opacity="0.27"/>
<circle cx="146.5" cy="146.5" r="2.5" fill="#1C4F8B" fill-opacity="0.27"/>
<circle cx="146.5" cy="122.5" r="2.5" fill="#1C4F8B" fill-opacity="0.27"/>
<circle cx="50.5" cy="194.5" r="2.5" fill="#1C4F8B" fill-opacity="0.27"/>
<circle cx="50.5" cy="170.5" r="2.5" fill="#1C4F8B" fill-opacity="0.27"/>
<circle cx="50.5" cy="146.5" r="2.5" fill="#1C4F8B" fill-opacity="0.27"/>
<circle cx="50.5" cy="122.5" r="2.5" fill="#1C4F8B" fill-opacity="0.27"/>
<circle cx="170.5" cy="194.5" r="2.5" fill="#1C4F8B" fill-opacity="0.27"/>
<circle cx="170.5" cy="170.5" r="2.5" fill="#1C4F8B" fill-opacity="0.27"/>
<circle cx="170.5" cy="146.5" r="2.5" fill="#1C4F8B" fill-opacity="0.27"/>
<circle cx="170.5" cy="122.5" r="2.5" fill="#1C4F8B" fill-opacity="0.27"/>
<circle cx="74.5" cy="194.5" r="2.5" fill="#1C4F8B" fill-opacity="0.27"/>
<circle cx="74.5" cy="170.5" r="2.5" fill="#1C4F8B" fill-opacity="0.27"/>
<circle cx="74.5" cy="146.5" r="2.5" fill="#1C4F8B" fill-opacity="0.27"/>
<circle cx="74.5" cy="122.5" r="2.5" fill="#1C4F8B" fill-opacity="0.27"/>
<circle cx="194.5" cy="194.5" r="2.5" fill="#1C4F8B" fill-opacity="0.27"/>
<circle cx="194.5" cy="170.5" r="2.5" fill="#1C4F8B" fill-opacity="0.27"/>
<circle cx="194.5" cy="146.5" r="2.5" fill="#1C4F8B" fill-opacity="0.27"/>
<circle cx="194.5" cy="122.5" r="2.5" fill="#1C4F8B" fill-opacity="0.27"/>
<circle cx="98.5" cy="194.5" r="2.5" fill="#1C4F8B" fill-opacity="0.27"/>
<circle cx="98.5" cy="170.5" r="2.5" fill="#1C4F8B" fill-opacity="0.27"/>
<circle cx="98.5" cy="146.5" r="2.5" fill="#1C4F8B" fill-opacity="0.27"/>
<circle cx="98.5" cy="122.5" r="2.5" fill="#1C4F8B" fill-opacity="0.27"/>
<circle cx="218.5" cy="194.5" r="2.5" fill="#1C4F8B" fill-opacity="0.27"/>
<circle cx="218.5" cy="170.5" r="2.5" fill="#1C4F8B" fill-opacity="0.27"/>
<circle cx="218.5" cy="146.5" r="2.5" fill="#1C4F8B" fill-opacity="0.27"/>
<circle cx="218.5" cy="122.5" r="2.5" fill="#1C4F8B" fill-opacity="0.27"/>
<circle cx="2.5" cy="98.5" r="2.5" fill="#1C4F8B" fill-opacity="0.27"/>
<circle cx="2.5" cy="74.5" r="2.5" fill="#1C4F8B" fill-opacity="0.27"/>
<circle cx="2.5" cy="50.5" r="2.5" fill="#1C4F8B" fill-opacity="0.27"/>
<circle cx="2.5" cy="26.5" r="2.5" fill="#1C4F8B" fill-opacity="0.27"/>
<circle cx="122.5" cy="98.5" r="2.5" fill="#1C4F8B" fill-opacity="0.27"/>
<circle cx="122.5" cy="74.5" r="2.5" fill="#1C4F8B" fill-opacity="0.27"/>
<circle cx="122.5" cy="50.5" r="2.5" fill="#1C4F8B" fill-opacity="0.27"/>
<circle cx="122.5" cy="26.5" r="2.5" fill="#1C4F8B" fill-opacity="0.27"/>
<circle cx="26.5" cy="98.5" r="2.5" fill="#1C4F8B" fill-opacity="0.27"/>
<circle cx="26.5" cy="74.5" r="2.5" fill="#1C4F8B" fill-opacity="0.27"/>
<circle cx="26.5" cy="50.5" r="2.5" fill="#1C4F8B" fill-opacity="0.27"/>
<circle cx="26.5" cy="26.5" r="2.5" fill="#1C4F8B" fill-opacity="0.27"/>
<circle cx="146.5" cy="98.5" r="2.5" fill="#1C4F8B" fill-opacity="0.27"/>
<circle cx="146.5" cy="74.5" r="2.5" fill="#1C4F8B" fill-opacity="0.27"/>
<circle cx="146.5" cy="50.5" r="2.5" fill="#1C4F8B" fill-opacity="0.27"/>
<circle cx="146.5" cy="26.5" r="2.5" fill="#1C4F8B" fill-opacity="0.27"/>
<circle cx="50.5" cy="98.5" r="2.5" fill="#1C4F8B" fill-opacity="0.27"/>
<circle cx="50.5" cy="74.5" r="2.5" fill="#1C4F8B" fill-opacity="0.27"/>
<circle cx="50.5" cy="50.5" r="2.5" fill="#1C4F8B" fill-opacity="0.27"/>
<circle cx="50.5" cy="26.5" r="2.5" fill="#1C4F8B" fill-opacity="0.27"/>
<circle cx="170.5" cy="98.5" r="2.5" fill="#1C4F8B" fill-opacity="0.27"/>
<circle cx="170.5" cy="74.5" r="2.5" fill="#1C4F8B" fill-opacity="0.27"/>
<circle cx="170.5" cy="50.5" r="2.5" fill="#1C4F8B" fill-opacity="0.27"/>
<circle cx="170.5" cy="26.5" r="2.5" fill="#1C4F8B" fill-opacity="0.27"/>
<circle cx="74.5" cy="98.5" r="2.5" fill="#1C4F8B" fill-opacity="0.27"/>
<circle cx="74.5" cy="74.5" r="2.5" fill="#1C4F8B" fill-opacity="0.27"/>
<circle cx="74.5" cy="50.5" r="2.5" fill="#1C4F8B" fill-opacity="0.27"/>
<circle cx="74.5" cy="26.5" r="2.5" fill="#1C4F8B" fill-opacity="0.27"/>
<circle cx="194.5" cy="98.5" r="2.5" fill="#1C4F8B" fill-opacity="0.27"/>
<circle cx="194.5" cy="74.5" r="2.5" fill="#1C4F8B" fill-opacity="0.27"/>
<circle cx="194.5" cy="50.5" r="2.5" fill="#1C4F8B" fill-opacity="0.27"/>
<circle cx="194.5" cy="26.5" r="2.5" fill="#1C4F8B" fill-opacity="0.27"/>
<circle cx="98.5" cy="98.5" r="2.5" fill="#1C4F8B" fill-opacity="0.27"/>
<circle cx="98.5" cy="74.5" r="2.5" fill="#1C4F8B" fill-opacity="0.27"/>
<circle cx="98.5" cy="50.5" r="2.5" fill="#1C4F8B" fill-opacity="0.27"/>
<circle cx="98.5" cy="26.5" r="2.5" fill="#1C4F8B" fill-opacity="0.27"/>
<circle cx="218.5" cy="98.5" r="2.5" fill="#1C4F8B" fill-opacity="0.27"/>
<circle cx="218.5" cy="74.5" r="2.5" fill="#1C4F8B" fill-opacity="0.27"/>
<circle cx="218.5" cy="50.5" r="2.5" fill="#1C4F8B" fill-opacity="0.27"/>
<circle cx="218.5" cy="26.5" r="2.5" fill="#1C4F8B" fill-opacity="0.27"/>
<circle cx="2.5" cy="2.5" r="2.5" fill="#1C4F8B" fill-opacity="0.27"/>
<circle cx="122.5" cy="2.5" r="2.5" fill="#1C4F8B" fill-opacity="0.27"/>
<circle cx="26.5" cy="2.5" r="2.5" fill="#1C4F8B" fill-opacity="0.27"/>
<circle cx="146.5" cy="2.5" r="2.5" fill="#1C4F8B" fill-opacity="0.27"/>
<circle cx="50.5" cy="2.5" r="2.5" fill="#1C4F8B" fill-opacity="0.27"/>
<circle cx="170.5" cy="2.5" r="2.5" fill="#1C4F8B" fill-opacity="0.27"/>
<circle cx="74.5" cy="2.5" r="2.5" fill="#1C4F8B" fill-opacity="0.27"/>
<circle cx="194.5" cy="2.5" r="2.5" fill="#1C4F8B" fill-opacity="0.27"/>
<circle cx="98.5" cy="2.5" r="2.5" fill="#1C4F8B" fill-opacity="0.27"/>
<circle cx="218.5" cy="2.5" r="2.5" fill="#1C4F8B" fill-opacity="0.27"/>
</svg>
