<svg width="288" height="294" fill="none" xmlns="http://www.w3.org/2000/svg"><circle cx="3.475" cy="111.865" r="2.5" transform="rotate(55.63 3.475 111.865)" fill="#E67DDE"/><circle cx="23.285" cy="98.316" r="2.5" transform="rotate(55.63 23.285 98.316)" fill="#E67DDE"/><circle cx="43.094" cy="84.767" r="2.5" transform="rotate(55.63 43.094 84.767)" fill="#E67DDE"/><circle cx="62.904" cy="71.219" r="2.5" transform="rotate(55.63 62.904 71.219)" fill="#E67DDE"/><circle cx="71.219" cy="210.914" r="2.5" transform="rotate(55.63 71.219 210.914)" fill="#E67DDE"/><circle cx="91.028" cy="197.365" r="2.5" transform="rotate(55.63 91.028 197.365)" fill="#E67DDE"/><circle cx="110.838" cy="183.817" r="2.5" transform="rotate(55.63 110.838 183.817)" fill="#E67DDE"/><circle cx="130.649" cy="170.268" r="2.5" transform="rotate(55.63 130.649 170.268)" fill="#E67DDE"/><circle cx="17.024" cy="131.675" r="2.5" transform="rotate(55.63 17.024 131.675)" fill="#E67DDE"/><circle cx="36.834" cy="118.126" r="2.5" transform="rotate(55.63 36.834 118.126)" fill="#E67DDE"/><circle cx="56.643" cy="104.577" r="2.5" transform="rotate(55.63 56.643 104.577)" fill="#E67DDE"/><circle cx="76.453" cy="91.029" r="2.5" transform="rotate(55.63 76.453 91.029)" fill="#E67DDE"/><circle cx="84.768" cy="230.724" r="2.5" transform="rotate(55.63 84.768 230.724)" fill="#E67DDE"/><circle cx="104.576" cy="217.176" r="2.5" transform="rotate(55.63 104.576 217.176)" fill="#E67DDE"/><circle cx="124.387" cy="203.627" r="2.5" transform="rotate(55.63 124.387 203.627)" fill="#E67DDE"/><circle cx="144.197" cy="190.078" r="2.5" transform="rotate(55.63 144.197 190.078)" fill="#E67DDE"/><circle cx="30.572" cy="151.485" r="2.5" transform="rotate(55.63 30.572 151.485)" fill="#E67DDE"/><circle cx="50.383" cy="137.936" r="2.5" transform="rotate(55.63 50.383 137.936)" fill="#E67DDE"/><circle cx="70.192" cy="124.387" r="2.5" transform="rotate(55.63 70.192 124.387)" fill="#E67DDE"/><circle cx="90.002" cy="110.838" r="2.5" transform="rotate(55.63 90.002 110.838)" fill="#E67DDE"/><circle cx="98.315" cy="250.534" r="2.5" transform="rotate(55.63 98.315 250.534)" fill="#E67DDE"/><circle cx="118.125" cy="236.985" r="2.5" transform="rotate(55.63 118.125 236.985)" fill="#E67DDE"/><circle cx="137.936" cy="223.437" r="2.5" transform="rotate(55.63 137.936 223.437)" fill="#E67DDE"/><circle cx="157.746" cy="209.888" r="2.5" transform="rotate(55.63 157.746 209.888)" fill="#E67DDE"/><circle cx="44.121" cy="171.294" r="2.5" transform="rotate(55.63 44.121 171.294)" fill="#E67DDE"/><circle cx="63.93" cy="157.746" r="2.5" transform="rotate(55.63 63.93 157.746)" fill="#E67DDE"/><circle cx="83.74" cy="144.197" r="2.5" transform="rotate(55.63 83.74 144.197)" fill="#E67DDE"/><circle cx="103.551" cy="130.648" r="2.5" transform="rotate(55.63 103.551 130.648)" fill="#E67DDE"/><circle cx="111.863" cy="270.344" r="2.5" transform="rotate(55.63 111.863 270.344)" fill="#E67DDE"/><circle cx="131.674" cy="256.795" r="2.5" transform="rotate(55.63 131.674 256.795)" fill="#E67DDE"/><circle cx="151.485" cy="243.246" r="2.5" transform="rotate(55.63 151.485 243.246)" fill="#E67DDE"/><circle cx="171.293" cy="229.698" r="2.5" transform="rotate(55.63 171.293 229.698)" fill="#E67DDE"/><circle cx="57.67" cy="191.104" r="2.5" transform="rotate(55.63 57.67 191.104)" fill="#E67DDE"/><circle cx="77.479" cy="177.555" r="2.5" transform="rotate(55.63 77.479 177.555)" fill="#E67DDE"/><circle cx="97.289" cy="164.007" r="2.5" transform="rotate(55.63 97.29 164.007)" fill="#E67DDE"/><circle cx="117.1" cy="150.458" r="2.5" transform="rotate(55.63 117.1 150.458)" fill="#E67DDE"/><circle cx="125.412" cy="290.154" r="2.5" transform="rotate(55.63 125.412 290.154)" fill="#E67DDE"/><circle cx="145.223" cy="276.605" r="2.5" transform="rotate(55.63 145.223 276.605)" fill="#E67DDE"/><circle cx="165.033" cy="263.056" r="2.5" transform="rotate(55.63 165.033 263.056)" fill="#E67DDE"/><circle cx="184.842" cy="249.508" r="2.5" transform="rotate(55.63 184.842 249.508)" fill="#E67DDE"/><circle cx="82.713" cy="57.67" r="2.5" transform="rotate(55.63 82.713 57.67)" fill="#E67DDE"/><circle cx="102.524" cy="44.121" r="2.5" transform="rotate(55.63 102.524 44.12)" fill="#E67DDE"/><circle cx="122.332" cy="30.573" r="2.5" transform="rotate(55.63 122.332 30.573)" fill="#E67DDE"/><circle cx="142.143" cy="17.024" r="2.5" transform="rotate(55.63 142.143 17.024)" fill="#E67DDE"/><circle cx="150.457" cy="156.719" r="2.5" transform="rotate(55.63 150.457 156.719)" fill="#E67DDE"/><circle cx="170.266" cy="143.171" r="2.5" transform="rotate(55.63 170.266 143.171)" fill="#E67DDE"/><circle cx="190.076" cy="129.622" r="2.5" transform="rotate(55.63 190.076 129.622)" fill="#E67DDE"/><circle cx="209.887" cy="116.073" r="2.5" transform="rotate(55.63 209.887 116.073)" fill="#E67DDE"/><circle cx="96.262" cy="77.48" r="2.5" transform="rotate(55.63 96.262 77.48)" fill="#E67DDE"/><circle cx="116.072" cy="63.931" r="2.5" transform="rotate(55.63 116.072 63.93)" fill="#E67DDE"/><circle cx="135.881" cy="50.382" r="2.5" transform="rotate(55.63 135.881 50.382)" fill="#E67DDE"/><circle cx="155.692" cy="36.834" r="2.5" transform="rotate(55.63 155.692 36.834)" fill="#E67DDE"/><circle cx="164.006" cy="176.529" r="2.5" transform="rotate(55.63 164.006 176.529)" fill="#E67DDE"/><circle cx="183.815" cy="162.981" r="2.5" transform="rotate(55.63 183.815 162.981)" fill="#E67DDE"/><circle cx="203.625" cy="149.432" r="2.5" transform="rotate(55.63 203.625 149.432)" fill="#E67DDE"/><circle cx="223.436" cy="135.883" r="2.5" transform="rotate(55.63 223.436 135.883)" fill="#E67DDE"/><circle cx="109.811" cy="97.29" r="2.5" transform="rotate(55.63 109.811 97.29)" fill="#E67DDE"/><circle cx="129.621" cy="83.741" r="2.5" transform="rotate(55.63 129.621 83.741)" fill="#E67DDE"/><circle cx="149.43" cy="70.192" r="2.5" transform="rotate(55.63 149.43 70.192)" fill="#E67DDE"/><circle cx="169.24" cy="56.643" r="2.5" transform="rotate(55.63 169.24 56.643)" fill="#E67DDE"/><circle cx="177.553" cy="196.339" r="2.5" transform="rotate(55.63 177.553 196.339)" fill="#E67DDE"/><circle cx="197.363" cy="182.79" r="2.5" transform="rotate(55.63 197.363 182.79)" fill="#E67DDE"/><circle cx="217.174" cy="169.242" r="2.5" transform="rotate(55.63 217.174 169.242)" fill="#E67DDE"/><circle cx="236.985" cy="155.693" r="2.5" transform="rotate(55.63 236.985 155.693)" fill="#E67DDE"/><circle cx="123.36" cy="117.099" r="2.5" transform="rotate(55.63 123.36 117.099)" fill="#E67DDE"/><circle cx="143.168" cy="103.551" r="2.5" transform="rotate(55.63 143.168 103.551)" fill="#E67DDE"/><circle cx="162.979" cy="90.002" r="2.5" transform="rotate(55.63 162.979 90.002)" fill="#E67DDE"/><circle cx="182.789" cy="76.453" r="2.5" transform="rotate(55.63 182.789 76.453)" fill="#E67DDE"/><circle cx="191.102" cy="216.149" r="2.5" transform="rotate(55.63 191.102 216.149)" fill="#E67DDE"/><circle cx="210.912" cy="202.6" r="2.5" transform="rotate(55.63 210.912 202.6)" fill="#E67DDE"/><circle cx="230.723" cy="189.052" r="2.5" transform="rotate(55.63 230.723 189.052)" fill="#E67DDE"/><circle cx="250.531" cy="175.503" r="2.5" transform="rotate(55.63 250.531 175.503)" fill="#E67DDE"/><circle cx="136.908" cy="136.909" r="2.5" transform="rotate(55.63 136.908 136.909)" fill="#E67DDE"/><circle cx="156.717" cy="123.361" r="2.5" transform="rotate(55.63 156.717 123.361)" fill="#E67DDE"/><circle cx="176.527" cy="109.812" r="2.5" transform="rotate(55.63 176.527 109.812)" fill="#E67DDE"/><circle cx="196.338" cy="96.263" r="2.5" transform="rotate(55.63 196.338 96.263)" fill="#E67DDE"/><circle cx="204.651" cy="235.959" r="2.5" transform="rotate(55.63 204.651 235.959)" fill="#E67DDE"/><circle cx="224.461" cy="222.41" r="2.5" transform="rotate(55.63 224.461 222.41)" fill="#E67DDE"/><circle cx="244.272" cy="208.862" r="2.5" transform="rotate(55.63 244.272 208.862)" fill="#E67DDE"/><circle cx="264.08" cy="195.313" r="2.5" transform="rotate(55.63 264.08 195.313)" fill="#E67DDE"/><circle cx="161.953" cy="3.475" r="2.5" transform="rotate(55.63 161.953 3.475)" fill="#E67DDE"/><circle cx="229.697" cy="102.525" r="2.5" transform="rotate(55.63 229.697 102.525)" fill="#E67DDE"/><circle cx="175.502" cy="23.285" r="2.5" transform="rotate(55.63 175.502 23.285)" fill="#E67DDE"/><circle cx="243.246" cy="122.334" r="2.5" transform="rotate(55.63 243.246 122.334)" fill="#E67DDE"/><circle cx="189.051" cy="43.094" r="2.5" transform="rotate(55.63 189.051 43.094)" fill="#E67DDE"/><circle cx="256.795" cy="142.144" r="2.5" transform="rotate(55.63 256.795 142.144)" fill="#E67DDE"/><circle cx="202.6" cy="62.904" r="2.5" transform="rotate(55.63 202.6 62.904)" fill="#E67DDE"/><circle cx="270.342" cy="161.954" r="2.5" transform="rotate(55.63 270.342 161.954)" fill="#E67DDE"/><circle cx="216.149" cy="82.715" r="2.5" transform="rotate(55.63 216.149 82.715)" fill="#E67DDE"/><circle cx="283.891" cy="181.764" r="2.5" transform="rotate(55.63 283.891 181.764)" fill="#E67DDE"/></svg>