<svg width="25" height="25" fill="none" xmlns="http://www.w3.org/2000/svg"><g clip-path="url(#clip0_2_5758)" fill="#fff"><path d="M12.5 23.177c-5.887 0-10.677-4.79-10.677-10.677 0-5.888 4.79-10.677 10.677-10.677S23.177 6.613 23.177 12.5 18.387 23.177 12.5 23.177zm0-19.27c-4.739 0-8.594 3.854-8.594 8.593 0 4.738 3.855 8.594 8.594 8.594 4.738 0 8.594-3.856 8.594-8.594 0-4.739-3.856-8.594-8.594-8.594z"/><path d="M12.5 5.73a1.042 1.042 0 01-1.042-1.043V1.042a1.042 1.042 0 012.084 0v3.646c0 .575-.467 1.041-1.042 1.041zm11.458 7.812h-3.645a1.042 1.042 0 010-2.083h3.645a1.042 1.042 0 010 2.083zM12.5 25a1.042 1.042 0 01-1.042-1.041v-3.646a1.042 1.042 0 012.084 0v3.646c0 .575-.467 1.041-1.042 1.041zM4.687 13.542H1.042a1.042 1.042 0 010-2.083h3.645a1.042 1.042 0 010 2.083zm7.813 2.083A3.129 3.129 0 019.375 12.5 3.129 3.129 0 0112.5 9.375a3.129 3.129 0 013.125 3.125 3.129 3.129 0 01-3.125 3.125zm0-4.167c-.574 0-1.042.468-1.042 1.042 0 .574.468 1.042 1.042 1.042.574 0 1.042-.468 1.042-1.042 0-.574-.468-1.042-1.042-1.042z"/></g><defs><clipPath id="clip0_2_5758"><path fill="#fff" d="M0 0h25v25H0z"/></clipPath></defs></svg>