<svg width="1920" height="1294" fill="none" xmlns="http://www.w3.org/2000/svg"><path d="M-11 1205V107.5L-36 48c18 5.667 61.4 18 91 22 37 5 133.5-22 189-22s181.5 35.5 239 35.5S708.99 48 759 48c48.5 0 334.96 35.5 380.5 35.5 105 0 212.5-35.5 317-35.5s237.84 29.418 278.5 22c74-13.5 144.5-41 191-70v1255.5s-153.09 23.74-252 26c-127.1 2.91-197.37-25.81-324.5-26-91.91-.13-143.57 22.45-235 13-55.88-5.77-85.05-23.46-141-28.5-101.346-9.13-157.277 31.09-259 28.5-93.972-2.39-144.018-37.94-238-36-108.372 2.24-163.258 71.88-271 60C114.857 1282.5-11 1205-11 1205z" fill="#ECF1F7"/></svg>