<svg width="19" height="19" fill="none" xmlns="http://www.w3.org/2000/svg"><path d="M18.65 3.568a.656.656 0 00-.54-.605C14.562 2.326 13.081 1.866 9.77.37a.656.656 0 00-.54 0C5.919 1.866 4.438 2.326.89 2.963a.656.656 0 00-.54.605c-.157 2.506.18 4.841 1.003 6.941a14.335 14.335 0 002.938 4.615c2.193 2.327 4.522 3.337 4.966 3.516a.656.656 0 00.492 0c.444-.179 2.773-1.19 4.966-3.516a14.335 14.335 0 002.932-4.615c.824-2.1 1.16-4.435 1.002-6.941zm-5.374 3.08l-4.544 5.25a.656.656 0 01-.468.227h-.027a.656.656 0 01-.46-.187L5.76 9.96a.656.656 0 11.92-.938l1.517 1.489 4.089-4.723a.656.656 0 11.992.86z" fill="#1C4F8B"/></svg>