<svg width="45" height="45" fill="none" xmlns="http://www.w3.org/2000/svg"><path d="M30.703 6.093a8.228 8.228 0 018.204 8.204v16.406a8.228 8.228 0 01-8.204 8.204H14.297a8.228 8.228 0 01-8.204-8.204V14.297a8.228 8.228 0 018.204-8.204h16.406zm0-3.28H14.297C7.98 2.813 2.812 7.98 2.812 14.296v16.406c0 6.317 5.168 11.485 11.485 11.485h16.406c6.317 0 11.485-5.169 11.485-11.485V14.297c0-6.317-5.169-11.485-11.485-11.485z" fill="#fff"/><path d="M33.164 14.297a2.46 2.46 0 110-4.921 2.46 2.46 0 010 4.921zM22.5 15.937a6.563 6.563 0 11-6.563 6.563 6.57 6.57 0 016.563-6.563zm0-3.28a9.844 9.844 0 100 19.688 9.844 9.844 0 000-19.689z" fill="#fff"/></svg>