<svg width="21" height="21" fill="none" xmlns="http://www.w3.org/2000/svg"><g clip-path="url(#clip0_2_6083)"><path d="M19.714 4.33a3.652 3.652 0 00-3.244-3.243 60.58 60.58 0 00-12.882 0A3.652 3.652 0 00.343 4.33a60.58 60.58 0 000 12.882 3.652 3.652 0 003.244 3.244c4.29.458 8.593.458 12.883 0a3.652 3.652 0 003.244-3.244 60.56 60.56 0 000-12.882z" fill="url(#paint0_radial_2_6083)"/><path d="M18.623 5.056a3.24 3.24 0 00-2.879-2.878 53.779 53.779 0 00-11.431 0 3.241 3.241 0 00-2.879 2.878 53.776 53.776 0 000 11.431 3.24 3.24 0 002.879 2.88c3.807.406 7.624.406 11.43 0a3.24 3.24 0 002.88-2.88 53.753 53.753 0 000-11.43z" fill="url(#paint1_linear_2_6083)"/><path d="M.3 16.797l.043.416a3.652 3.652 0 003.245 3.244 60.56 60.56 0 0012.882 0 3.652 3.652 0 003.244-3.244l.043-.416H.3z" fill="url(#paint2_linear_2_6083)"/><path d="M19.714 17.213c.246-2.305.36-4.614.341-6.922L15.47 5.706c-.572-.654-1.409-1.062-2.392-1.097a86.373 86.373 0 00-6.071 0c-1.68.058-2.854 1.187-3.155 2.846-.053.293-.085.59-.127.884v4.864c.023.157.057.314.068.473.067 1.009.482 1.873 1.146 2.458l4.665 4.665a60.62 60.62 0 006.866-.342 3.652 3.652 0 003.244-3.244z" fill="url(#paint3_linear_2_6083)"/><path d="M19.714 17.213a3.652 3.652 0 01-3.244 3.244 60.686 60.686 0 01-6.866.342L4.946 16.14c.54.473 1.244.76 2.06.792a81.96 81.96 0 006.072 0c1.829-.065 3.152-1.419 3.209-3.247.06-1.941.06-3.888 0-5.829-.026-.843-.322-1.585-.813-2.147l4.581 4.582a60.71 60.71 0 01-.341 6.922z" fill="url(#paint4_linear_2_6083)"/><path d="M12.396 8.6a3.213 3.213 0 10-4.539 4.538l7.433 7.433c.393-.034.787-.072 1.18-.114a3.652 3.652 0 003.244-3.244c.042-.393.08-.787.114-1.18L12.396 8.6z" fill="url(#paint5_linear_2_6083)"/><path d="M20.018 12.932l-5.982-5.981a.762.762 0 10-1.07 1.07l6.945 6.944c.047-.677.083-1.355.107-2.033z" fill="url(#paint6_linear_2_6083)"/><path d="M3.725 8.34c.042-.296.074-.592.127-.885.3-1.66 1.475-2.788 3.155-2.846a85.94 85.94 0 016.071 0c1.828.066 3.151 1.419 3.209 3.247a93.16 93.16 0 010 5.83c-.058 1.828-1.38 3.18-3.209 3.247-2.021.073-4.05.075-6.071-.001-1.828-.069-3.092-1.425-3.214-3.256-.01-.159-.045-.316-.068-.473V8.338zm6.305 7.51c.926 0 1.852.027 2.776-.007 1.448-.054 2.34-.918 2.373-2.366.042-1.803.042-3.609 0-5.413-.034-1.447-.925-2.331-2.373-2.362a130.992 130.992 0 00-5.516 0c-1.437.03-2.331.897-2.37 2.328-.05 1.826-.05 3.656 0 5.482.039 1.43.933 2.278 2.37 2.33.912.035 1.827.007 2.74.007z" fill="url(#paint7_linear_2_6083)"/><path d="M3.725 8.34c.042-.296.074-.592.127-.885.3-1.66 1.475-2.788 3.155-2.846a85.94 85.94 0 016.071 0c1.828.066 3.151 1.419 3.209 3.247a93.16 93.16 0 010 5.83c-.058 1.828-1.38 3.18-3.209 3.247-2.021.073-4.05.075-6.071-.001-1.828-.069-3.092-1.425-3.214-3.256-.01-.159-.045-.316-.068-.473V8.338zm6.305 7.51c.926 0 1.852.027 2.776-.007 1.448-.054 2.34-.918 2.373-2.366.042-1.803.042-3.609 0-5.413-.034-1.447-.925-2.331-2.373-2.362a130.992 130.992 0 00-5.516 0c-1.437.03-2.331.897-2.37 2.328-.05 1.826-.05 3.656 0 5.482.039 1.43.933 2.278 2.37 2.33.912.035 1.827.007 2.74.007z" fill="#fff"/><path d="M10.029 7.56a3.213 3.213 0 100 6.425 3.213 3.213 0 000-6.425zm0 5.319a2.106 2.106 0 110-4.213 2.106 2.106 0 010 4.213zm4.164-5.466a.764.764 0 11-1.528 0 .764.764 0 011.528 0z" fill="#fff"/></g><defs><linearGradient id="paint1_linear_2_6083" x1="7.693" y1="9.458" x2="-26.287" y2="-9.655" gradientUnits="userSpaceOnUse"><stop stop-color="#A1B5D8" stop-opacity="0"/><stop offset=".309" stop-color="#90A2BD" stop-opacity=".31"/><stop offset=".755" stop-color="#7C8B9C" stop-opacity=".757"/><stop offset="1" stop-color="#748290"/></linearGradient><linearGradient id="paint2_linear_2_6083" x1="10.029" y1="18.448" x2="10.029" y2="21.575" gradientUnits="userSpaceOnUse"><stop stop-color="#FAE100" stop-opacity="0"/><stop offset=".307" stop-color="#FCA800" stop-opacity=".306"/><stop offset=".627" stop-color="#FE7300" stop-opacity=".627"/><stop offset=".869" stop-color="#FF5200" stop-opacity=".867"/><stop offset="1" stop-color="#FF4500"/></linearGradient><linearGradient id="paint3_linear_2_6083" x1="8.888" y1="9.602" x2="3.924" y2="4.639" gradientUnits="userSpaceOnUse"><stop stop-color="#833AB4" stop-opacity="0"/><stop offset="1" stop-color="#833AB4"/></linearGradient><linearGradient id="paint4_linear_2_6083" x1="13.746" y1="19.088" x2="11.269" y2="7.408" gradientUnits="userSpaceOnUse"><stop stop-color="#833AB4" stop-opacity="0"/><stop offset="1" stop-color="#833AB4"/></linearGradient><linearGradient id="paint5_linear_2_6083" x1="14.689" y1="15.432" x2="4.738" y2="5.481" gradientUnits="userSpaceOnUse"><stop stop-color="#833AB4" stop-opacity="0"/><stop offset="1" stop-color="#833AB4"/></linearGradient><linearGradient id="paint6_linear_2_6083" x1="15.427" y1="9.411" x2="12.136" y2="6.12" gradientUnits="userSpaceOnUse"><stop stop-color="#833AB4" stop-opacity="0"/><stop offset="1" stop-color="#833AB4"/></linearGradient><linearGradient id="paint7_linear_2_6083" x1="14.011" y1="6.817" x2="5.897" y2="14.931" gradientUnits="userSpaceOnUse"><stop stop-color="#833AB4"/><stop offset=".092" stop-color="#9C3495"/><stop offset=".293" stop-color="#DC2546"/><stop offset=".392" stop-color="#FD1D1D"/><stop offset=".559" stop-color="#FC6831"/><stop offset=".689" stop-color="#FC9B40"/><stop offset=".752" stop-color="#FCAF45"/><stop offset=".781" stop-color="#FDB750"/><stop offset=".866" stop-color="#FECB6A"/><stop offset=".942" stop-color="#FFD87A"/><stop offset="1" stop-color="#FFDC80"/></linearGradient><radialGradient id="paint0_radial_2_6083" cx="0" cy="0" r="1" gradientUnits="userSpaceOnUse" gradientTransform="translate(4.112 18.271) scale(22.1195)"><stop stop-color="#FAE100"/><stop offset=".054" stop-color="#FADC04"/><stop offset=".117" stop-color="#FBCE0E"/><stop offset=".183" stop-color="#FCB720"/><stop offset=".251" stop-color="#FE9838"/><stop offset=".305" stop-color="#FF7950"/><stop offset=".492" stop-color="#FF1C74"/><stop offset="1" stop-color="#6C1CD1"/></radialGradient><clipPath id="clip0_2_6083"><path fill="#fff" transform="translate(0 .743)" d="M0 0h20.057v20.057H0z"/></clipPath></defs></svg>