<svg width="19" height="19" fill="none" xmlns="http://www.w3.org/2000/svg"><path d="M15.037 18.688c-.8 0-1.925-.29-3.61-1.23-2.047-1.15-3.631-2.21-5.668-4.241-1.964-1.963-2.92-3.233-4.257-5.667C-.01 4.802.249 3.36.536 2.746c.343-.736.85-1.176 1.504-1.613A7.23 7.23 0 013.214.509a9.33 9.33 0 00.114-.05c.203-.09.51-.229.9-.081.26.097.492.297.855.656.746.735 1.764 2.372 2.14 3.176.252.542.419.9.42 1.3 0 .47-.237.832-.524 1.223-.053.074-.107.144-.158.212-.312.41-.38.529-.336.74.092.426.774 1.692 1.895 2.81 1.12 1.119 2.35 1.758 2.777 1.849.221.047.342-.024.765-.348.06-.046.123-.094.189-.142.437-.325.782-.555 1.24-.555h.003c.4 0 .74.173 1.307.458.738.373 2.424 1.378 3.164 2.124.36.363.56.594.658.854.148.39.009.697-.082.902l-.05.113a7.172 7.172 0 01-.627 1.172c-.436.652-.877 1.157-1.615 1.5-.379.18-.793.27-1.212.266z" fill="#fff"/></svg>