<svg width="18" height="20" fill="none" xmlns="http://www.w3.org/2000/svg"><path d="M15.602 12.24c-.274 1.168-1.677 2.62-2.792 2.888a19 19 0 01-4.401.384.1.1 0 00-.078.034l-1.369 1.518-1.456 1.613c-.106.12-.293.039-.293-.127v-3.31a.112.112 0 00-.086-.111c-1.116-.269-2.519-1.72-2.793-2.889a17.114 17.114 0 010-6.81c.274-1.167 1.677-2.619 2.792-2.887a18.984 18.984 0 017.684 0c1.115.268 2.518 1.72 2.792 2.888.457 2.26.457 4.55 0 6.81z" fill="#7D3DAF"/><path fill-rule="evenodd" clip-rule="evenodd" d="M17.085 5.068l-.005-.022c-.41-1.79-2.258-3.71-3.955-4.11l-.02-.004a20.384 20.384 0 00-8.274 0l-.02.004c-1.696.4-3.545 2.32-3.955 4.11l-.005.022a18.858 18.858 0 000 7.535l.005.022c.393 1.713 2.103 3.546 3.738 4.05v1.998c0 .723.816 1.079 1.28.557l1.874-2.105a20.2 20.2 0 005.357-.385l.02-.005c1.697-.4 3.545-2.32 3.955-4.11l.005-.022a18.86 18.86 0 000-7.535zm-4.275 10.06c1.115-.268 2.518-1.72 2.792-2.887.457-2.26.457-4.55 0-6.81-.274-1.168-1.677-2.62-2.792-2.888a18.984 18.984 0 00-7.684 0c-1.115.268-2.518 1.72-2.792 2.888a17.114 17.114 0 000 6.81c.274 1.167 1.677 2.62 2.792 2.887h.001c.05.011.086.057.086.112v3.31c0 .166.187.247.293.127l1.456-1.613 1.369-1.518a.1.1 0 01.078-.034 19.01 19.01 0 004.4-.384z" fill="#7D3DAF"/><path d="M11.394 13.922c-.171-.057-.335-.095-.486-.164-1.573-.712-3.02-1.632-4.166-3.04C6.091 9.915 5.58 9.01 5.15 8.052c-.204-.454-.377-.926-.552-1.394-.16-.428.075-.87.324-1.192.233-.302.533-.533.858-.704.253-.133.503-.056.689.179.4.507.768 1.04 1.065 1.63.183.361.133.804-.199 1.05-.08.06-.154.13-.229.198a.796.796 0 00-.173.199.59.59 0 00-.033.48c.409 1.228 1.099 2.183 2.23 2.698.182.082.364.178.572.152.35-.045.463-.464.708-.683.239-.213.545-.216.803-.038s.508.37.756.563c.244.19.487.376.712.592.216.209.29.482.169.764-.223.517-.548.948-1.016 1.223-.132.077-.29.102-.439.152zm-2.422-9.75c2.057.063 3.746 1.554 4.108 3.775.061.378.083.765.11 1.15.012.161-.072.315-.231.317-.165.002-.24-.149-.25-.31-.021-.32-.036-.641-.076-.958-.213-1.674-1.434-3.059-2.96-3.356-.229-.044-.463-.056-.696-.083-.147-.017-.34-.026-.372-.226a.267.267 0 01.248-.309c.04-.002.08 0 .12 0z" fill="#fff"/><path d="M12.098 8.598c-.003.028-.005.094-.02.156-.055.226-.368.254-.44.026a.736.736 0 01-.025-.217c0-.476-.095-.951-.315-1.365a2.424 2.424 0 00-.975-1 2.633 2.633 0 00-.777-.26c-.117-.022-.236-.035-.354-.053-.142-.021-.219-.12-.212-.274.006-.144.103-.248.246-.239.472.03.928.14 1.348.384.853.493 1.34 1.272 1.483 2.313.006.047.016.094.02.141.008.117.013.234.02.388-.002.028-.007-.154 0 0z" fill="#fff"/><path d="M10.819 8.544c-.172.003-.264-.101-.282-.273-.013-.12-.022-.242-.049-.36a1.024 1.024 0 00-.34-.584.861.861 0 00-.278-.146c-.127-.04-.258-.03-.384-.063a.256.256 0 01-.19-.298.252.252 0 01.26-.217c.798.063 1.367.513 1.449 1.539.005.072.012.149-.003.218-.025.118-.105.178-.183.184-.172.003.078-.006 0 0z" fill="#fff"/></svg>