<svg width="51" height="51" fill="none" xmlns="http://www.w3.org/2000/svg"><path fill-rule="evenodd" clip-rule="evenodd" d="M48.28 13.148c.355-1.123 0-1.94-1.568-1.94h-5.217c-1.316 0-1.923.715-2.278 1.48 0 0-2.683 6.535-6.43 10.771-1.216 1.225-1.773 1.634-2.431 1.634-.355 0-.81-.409-.81-1.531V13.096c0-1.327-.405-1.94-1.52-1.94h-8.204c-.81 0-1.317.613-1.317 1.225 0 1.276 1.874 1.583 2.076 5.156v7.764c0 1.684-.299 1.992-.962 1.992-1.772 0-6.076-6.585-8.658-14.089-.502-1.486-1.012-2.048-2.329-2.048H3.366c-1.52 0-1.772.714-1.772 1.48 0 1.379 1.772 8.32 8.253 17.509 4.305 6.275 10.432 9.648 15.95 9.648 3.344 0 3.748-.766 3.748-2.042v-4.747c0-1.531.304-1.786 1.368-1.786.759 0 2.126.407 5.215 3.42 3.544 3.572 4.152 5.206 6.127 5.206h5.216c1.519 0 2.228-.766 1.823-2.246-.455-1.48-2.178-3.624-4.406-6.176-1.215-1.429-3.038-3.011-3.595-3.777-.759-1.021-.557-1.43 0-2.348-.05 0 6.33-9.087 6.988-12.152" fill="#fff"/></svg>