<svg width="21" height="21" fill="none" xmlns="http://www.w3.org/2000/svg"><path d="M10.6 20.8c5.744 0 10.4-4.656 10.4-10.4C21 4.656 16.344 0 10.6 0 4.856 0 .2 4.656.2 10.4c0 5.744 4.656 10.4 10.4 10.4z" fill="#4D76A1"/><path fill-rule="evenodd" clip-rule="evenodd" d="M10.207 14.961h.816s.247-.027.373-.163c.116-.124.112-.358.112-.358s-.016-1.096.492-1.257c.502-.159 1.145 1.059 1.827 1.527.516.354.908.276.908.276l1.823-.025s.954-.059.502-.809c-.037-.061-.263-.555-1.356-1.569-1.143-1.061-.99-.89.387-2.725.84-1.118 1.174-1.801 1.07-2.093-.1-.279-.717-.205-.717-.205l-2.053.013s-.153-.021-.266.046a.575.575 0 00-.181.22s-.325.866-.758 1.602c-.915 1.552-1.28 1.634-1.43 1.538-.347-.225-.26-.903-.26-1.384 0-1.505.228-2.132-.445-2.295-.223-.054-.387-.09-.958-.095-.733-.008-1.353.002-1.704.174-.234.115-.414.37-.304.384.135.018.443.083.606.305.21.286.203.93.203.93s.12 1.77-.283 1.99c-.276.151-.656-.157-1.471-1.565-.418-.722-.733-1.52-.733-1.52s-.061-.149-.17-.228c-.131-.097-.315-.128-.315-.128l-1.951.013s-.293.008-.4.136c-.096.113-.008.347-.008.347s1.527 3.574 3.257 5.375c1.586 1.652 3.387 1.543 3.387 1.543z" fill="#fff"/></svg>