<svg width="19" height="18" fill="none" xmlns="http://www.w3.org/2000/svg"><path d="M9.503.428h-.005C4.566.428.556 4.24.556 8.925c0 1.86.63 3.582 1.703 4.98l-1.115 3.158 3.438-1.044a9.203 9.203 0 004.92 1.404c4.932 0 8.943-3.812 8.943-8.498 0-4.685-4.01-8.497-8.942-8.497z" fill="#4CAF50"/><path d="M14.707 12.427c-.216.579-1.072 1.06-1.755 1.2-.467.094-1.078.17-3.133-.64-2.628-1.035-4.321-3.572-4.453-3.737-.126-.164-1.062-1.343-1.062-2.563 0-1.22.652-1.813.914-2.068.216-.209.573-.305.915-.305.11 0 .21.006.3.01.262.01.394.026.567.42.216.493.742 1.713.804 1.838.064.125.128.295.038.46-.083.17-.157.245-.29.39-.131.144-.256.255-.388.41-.121.135-.257.28-.105.529.152.244.677 1.059 1.45 1.713 1 .845 1.809 1.114 2.098 1.229.216.085.473.065.63-.095.201-.205.448-.544.7-.879.179-.24.404-.27.641-.185.242.08 1.52.68 1.783.804.262.126.436.185.5.29.062.105.062.6-.154 1.18z" fill="#FAFAFA"/></svg>