<svg width="288" height="294" viewBox="0 0 288 294" fill="none" xmlns="http://www.w3.org/2000/svg">
<circle cx="3.47474" cy="111.865" r="2.5" transform="rotate(55.6304 3.47474 111.865)" fill="#E67DDE"/>
<circle cx="23.2853" cy="98.3157" r="2.5" transform="rotate(55.6304 23.2853 98.3157)" fill="#E67DDE"/>
<circle cx="43.0939" cy="84.7673" r="2.5" transform="rotate(55.6304 43.0939 84.7673)" fill="#E67DDE"/>
<circle cx="62.9044" cy="71.2185" r="2.5" transform="rotate(55.6304 62.9044 71.2185)" fill="#E67DDE"/>
<circle cx="71.2189" cy="210.914" r="2.5" transform="rotate(55.6304 71.2189 210.914)" fill="#E67DDE"/>
<circle cx="91.0275" cy="197.365" r="2.5" transform="rotate(55.6304 91.0275 197.365)" fill="#E67DDE"/>
<circle cx="110.838" cy="183.817" r="2.5" transform="rotate(55.6304 110.838 183.817)" fill="#E67DDE"/>
<circle cx="130.649" cy="170.268" r="2.5" transform="rotate(55.6304 130.649 170.268)" fill="#E67DDE"/>
<circle cx="17.0236" cy="131.675" r="2.5" transform="rotate(55.6304 17.0236 131.675)" fill="#E67DDE"/>
<circle cx="36.8341" cy="118.126" r="2.5" transform="rotate(55.6304 36.8341 118.126)" fill="#E67DDE"/>
<circle cx="56.6427" cy="104.577" r="2.5" transform="rotate(55.6304 56.6427 104.577)" fill="#E67DDE"/>
<circle cx="76.4533" cy="91.0286" r="2.5" transform="rotate(55.6304 76.4533 91.0286)" fill="#E67DDE"/>
<circle cx="84.7677" cy="230.724" r="2.5" transform="rotate(55.6304 84.7677 230.724)" fill="#E67DDE"/>
<circle cx="104.576" cy="217.176" r="2.5" transform="rotate(55.6304 104.576 217.176)" fill="#E67DDE"/>
<circle cx="124.387" cy="203.627" r="2.5" transform="rotate(55.6304 124.387 203.627)" fill="#E67DDE"/>
<circle cx="144.197" cy="190.078" r="2.5" transform="rotate(55.6304 144.197 190.078)" fill="#E67DDE"/>
<circle cx="30.5724" cy="151.485" r="2.5" transform="rotate(55.6304 30.5724 151.485)" fill="#E67DDE"/>
<circle cx="50.3829" cy="137.936" r="2.5" transform="rotate(55.6304 50.3829 137.936)" fill="#E67DDE"/>
<circle cx="70.1915" cy="124.387" r="2.5" transform="rotate(55.6304 70.1915 124.387)" fill="#E67DDE"/>
<circle cx="90.0021" cy="110.838" r="2.5" transform="rotate(55.6304 90.0021 110.838)" fill="#E67DDE"/>
<circle cx="98.3146" cy="250.534" r="2.5" transform="rotate(55.6304 98.3146 250.534)" fill="#E67DDE"/>
<circle cx="118.125" cy="236.985" r="2.5" transform="rotate(55.6304 118.125 236.985)" fill="#E67DDE"/>
<circle cx="137.936" cy="223.437" r="2.5" transform="rotate(55.6304 137.936 223.437)" fill="#E67DDE"/>
<circle cx="157.746" cy="209.888" r="2.5" transform="rotate(55.6304 157.746 209.888)" fill="#E67DDE"/>
<circle cx="44.1212" cy="171.294" r="2.5" transform="rotate(55.6304 44.1212 171.294)" fill="#E67DDE"/>
<circle cx="63.9298" cy="157.746" r="2.5" transform="rotate(55.6304 63.9298 157.746)" fill="#E67DDE"/>
<circle cx="83.7404" cy="144.197" r="2.5" transform="rotate(55.6304 83.7404 144.197)" fill="#E67DDE"/>
<circle cx="103.551" cy="130.648" r="2.5" transform="rotate(55.6304 103.551 130.648)" fill="#E67DDE"/>
<circle cx="111.863" cy="270.344" r="2.5" transform="rotate(55.6304 111.863 270.344)" fill="#E67DDE"/>
<circle cx="131.674" cy="256.795" r="2.5" transform="rotate(55.6304 131.674 256.795)" fill="#E67DDE"/>
<circle cx="151.485" cy="243.246" r="2.5" transform="rotate(55.6304 151.485 243.246)" fill="#E67DDE"/>
<circle cx="171.293" cy="229.698" r="2.5" transform="rotate(55.6304 171.293 229.698)" fill="#E67DDE"/>
<circle cx="57.6701" cy="191.104" r="2.5" transform="rotate(55.6304 57.6701 191.104)" fill="#E67DDE"/>
<circle cx="77.4786" cy="177.555" r="2.5" transform="rotate(55.6304 77.4786 177.555)" fill="#E67DDE"/>
<circle cx="97.2892" cy="164.007" r="2.5" transform="rotate(55.6304 97.2892 164.007)" fill="#E67DDE"/>
<circle cx="117.1" cy="150.458" r="2.5" transform="rotate(55.6304 117.1 150.458)" fill="#E67DDE"/>
<circle cx="125.412" cy="290.154" r="2.5" transform="rotate(55.6304 125.412 290.154)" fill="#E67DDE"/>
<circle cx="145.223" cy="276.605" r="2.5" transform="rotate(55.6304 145.223 276.605)" fill="#E67DDE"/>
<circle cx="165.033" cy="263.056" r="2.5" transform="rotate(55.6304 165.033 263.056)" fill="#E67DDE"/>
<circle cx="184.842" cy="249.508" r="2.5" transform="rotate(55.6304 184.842 249.508)" fill="#E67DDE"/>
<circle cx="82.713" cy="57.6697" r="2.5" transform="rotate(55.6304 82.713 57.6697)" fill="#E67DDE"/>
<circle cx="102.524" cy="44.1209" r="2.5" transform="rotate(55.6304 102.524 44.1209)" fill="#E67DDE"/>
<circle cx="122.332" cy="30.5725" r="2.5" transform="rotate(55.6304 122.332 30.5725)" fill="#E67DDE"/>
<circle cx="142.143" cy="17.0237" r="2.5" transform="rotate(55.6304 142.143 17.0237)" fill="#E67DDE"/>
<circle cx="150.457" cy="156.719" r="2.5" transform="rotate(55.6304 150.457 156.719)" fill="#E67DDE"/>
<circle cx="170.266" cy="143.171" r="2.5" transform="rotate(55.6304 170.266 143.171)" fill="#E67DDE"/>
<circle cx="190.076" cy="129.622" r="2.5" transform="rotate(55.6304 190.076 129.622)" fill="#E67DDE"/>
<circle cx="209.887" cy="116.073" r="2.5" transform="rotate(55.6304 209.887 116.073)" fill="#E67DDE"/>
<circle cx="96.2618" cy="77.4797" r="2.5" transform="rotate(55.6304 96.2618 77.4797)" fill="#E67DDE"/>
<circle cx="116.072" cy="63.9309" r="2.5" transform="rotate(55.6304 116.072 63.9309)" fill="#E67DDE"/>
<circle cx="135.881" cy="50.3821" r="2.5" transform="rotate(55.6304 135.881 50.3821)" fill="#E67DDE"/>
<circle cx="155.692" cy="36.8337" r="2.5" transform="rotate(55.6304 155.692 36.8337)" fill="#E67DDE"/>
<circle cx="164.006" cy="176.529" r="2.5" transform="rotate(55.6304 164.006 176.529)" fill="#E67DDE"/>
<circle cx="183.815" cy="162.981" r="2.5" transform="rotate(55.6304 183.815 162.981)" fill="#E67DDE"/>
<circle cx="203.625" cy="149.432" r="2.5" transform="rotate(55.6304 203.625 149.432)" fill="#E67DDE"/>
<circle cx="223.436" cy="135.883" r="2.5" transform="rotate(55.6304 223.436 135.883)" fill="#E67DDE"/>
<circle cx="109.811" cy="97.2898" r="2.5" transform="rotate(55.6304 109.811 97.2898)" fill="#E67DDE"/>
<circle cx="129.621" cy="83.741" r="2.5" transform="rotate(55.6304 129.621 83.741)" fill="#E67DDE"/>
<circle cx="149.43" cy="70.1921" r="2.5" transform="rotate(55.6304 149.43 70.1921)" fill="#E67DDE"/>
<circle cx="169.24" cy="56.6433" r="2.5" transform="rotate(55.6304 169.24 56.6433)" fill="#E67DDE"/>
<circle cx="177.553" cy="196.339" r="2.5" transform="rotate(55.6304 177.553 196.339)" fill="#E67DDE"/>
<circle cx="197.363" cy="182.79" r="2.5" transform="rotate(55.6304 197.363 182.79)" fill="#E67DDE"/>
<circle cx="217.174" cy="169.242" r="2.5" transform="rotate(55.6304 217.174 169.242)" fill="#E67DDE"/>
<circle cx="236.985" cy="155.693" r="2.5" transform="rotate(55.6304 236.985 155.693)" fill="#E67DDE"/>
<circle cx="123.36" cy="117.099" r="2.5" transform="rotate(55.6304 123.36 117.099)" fill="#E67DDE"/>
<circle cx="143.168" cy="103.551" r="2.5" transform="rotate(55.6304 143.168 103.551)" fill="#E67DDE"/>
<circle cx="162.979" cy="90.0022" r="2.5" transform="rotate(55.6304 162.979 90.0022)" fill="#E67DDE"/>
<circle cx="182.789" cy="76.4534" r="2.5" transform="rotate(55.6304 182.789 76.4534)" fill="#E67DDE"/>
<circle cx="191.102" cy="216.149" r="2.5" transform="rotate(55.6304 191.102 216.149)" fill="#E67DDE"/>
<circle cx="210.912" cy="202.6" r="2.5" transform="rotate(55.6304 210.912 202.6)" fill="#E67DDE"/>
<circle cx="230.723" cy="189.052" r="2.5" transform="rotate(55.6304 230.723 189.052)" fill="#E67DDE"/>
<circle cx="250.531" cy="175.503" r="2.5" transform="rotate(55.6304 250.531 175.503)" fill="#E67DDE"/>
<circle cx="136.908" cy="136.909" r="2.5" transform="rotate(55.6304 136.908 136.909)" fill="#E67DDE"/>
<circle cx="156.717" cy="123.361" r="2.5" transform="rotate(55.6304 156.717 123.361)" fill="#E67DDE"/>
<circle cx="176.527" cy="109.812" r="2.5" transform="rotate(55.6304 176.527 109.812)" fill="#E67DDE"/>
<circle cx="196.338" cy="96.2634" r="2.5" transform="rotate(55.6304 196.338 96.2634)" fill="#E67DDE"/>
<circle cx="204.651" cy="235.959" r="2.5" transform="rotate(55.6304 204.651 235.959)" fill="#E67DDE"/>
<circle cx="224.461" cy="222.41" r="2.5" transform="rotate(55.6304 224.461 222.41)" fill="#E67DDE"/>
<circle cx="244.272" cy="208.862" r="2.5" transform="rotate(55.6304 244.272 208.862)" fill="#E67DDE"/>
<circle cx="264.08" cy="195.313" r="2.5" transform="rotate(55.6304 264.08 195.313)" fill="#E67DDE"/>
<circle cx="161.953" cy="3.47486" r="2.5" transform="rotate(55.6304 161.953 3.47486)" fill="#E67DDE"/>
<circle cx="229.697" cy="102.525" r="2.5" transform="rotate(55.6304 229.697 102.525)" fill="#E67DDE"/>
<circle cx="175.502" cy="23.2849" r="2.5" transform="rotate(55.6304 175.502 23.2849)" fill="#E67DDE"/>
<circle cx="243.246" cy="122.334" r="2.5" transform="rotate(55.6304 243.246 122.334)" fill="#E67DDE"/>
<circle cx="189.051" cy="43.0945" r="2.5" transform="rotate(55.6304 189.051 43.0945)" fill="#E67DDE"/>
<circle cx="256.795" cy="142.144" r="2.5" transform="rotate(55.6304 256.795 142.144)" fill="#E67DDE"/>
<circle cx="202.6" cy="62.9045" r="2.5" transform="rotate(55.6304 202.6 62.9045)" fill="#E67DDE"/>
<circle cx="270.342" cy="161.954" r="2.5" transform="rotate(55.6304 270.342 161.954)" fill="#E67DDE"/>
<circle cx="216.149" cy="82.7146" r="2.5" transform="rotate(55.6304 216.149 82.7146)" fill="#E67DDE"/>
<circle cx="283.891" cy="181.764" r="2.5" transform="rotate(55.6304 283.891 181.764)" fill="#E67DDE"/>
</svg>
