<?xml version="1.0" encoding="utf-8"?><svg viewBox="0 0 28 33" xmlns="http://www.w3.org/2000/svg" xmlns:xlink="http://www.w3.org/1999/xlink"><style>:root>svg{display:none}:root>svg:target{display:block}</style><svg viewBox="0 0 25 25" id="aim" xmlns="http://www.w3.org/2000/svg"><g clip-path="url(#aclip0_2_5758)"><path d="M12.5 23.177c-5.887 0-10.677-4.79-10.677-10.677 0-5.888 4.79-10.677 10.677-10.677S23.177 6.613 23.177 12.5 18.387 23.177 12.5 23.177zm0-19.27c-4.739 0-8.594 3.854-8.594 8.593 0 4.738 3.855 8.594 8.594 8.594 4.738 0 8.594-3.856 8.594-8.594 0-4.739-3.856-8.594-8.594-8.594z"/><path d="M12.5 5.73a1.042 1.042 0 01-1.042-1.043V1.042a1.042 1.042 0 012.084 0v3.646c0 .575-.467 1.041-1.042 1.041zM23.958 13.542h-3.645a1.042 1.042 0 010-2.083h3.645a1.042 1.042 0 010 2.083zM12.5 25a1.042 1.042 0 01-1.042-1.041v-3.646a1.042 1.042 0 012.084 0v3.646c0 .575-.467 1.041-1.042 1.041zM4.687 13.542H1.042a1.042 1.042 0 010-2.083h3.645a1.042 1.042 0 010 2.083zM12.5 15.625A3.129 3.129 0 019.375 12.5 3.129 3.129 0 0112.5 9.375a3.129 3.129 0 013.125 3.125 3.129 3.129 0 01-3.125 3.125zm0-4.167c-.574 0-1.042.468-1.042 1.042 0 .574.468 1.042 1.042 1.042.574 0 1.042-.468 1.042-1.042 0-.574-.468-1.042-1.042-1.042z"/></g><defs><clipPath id="aclip0_2_5758"><path d="M0 0h25v25H0z"/></clipPath></defs></svg><svg viewBox="0 0 19 19" id="defense" xmlns="http://www.w3.org/2000/svg"><path d="M18.65 3.568a.656.656 0 00-.54-.605C14.562 2.326 13.081 1.866 9.77.37a.656.656 0 00-.54 0C5.919 1.866 4.438 2.326.89 2.963a.656.656 0 00-.54.605c-.157 2.506.18 4.841 1.003 6.941a14.335 14.335 0 002.938 4.615c2.193 2.327 4.522 3.337 4.966 3.516a.656.656 0 00.492 0c.444-.179 2.773-1.19 4.966-3.516a14.335 14.335 0 002.932-4.615c.824-2.1 1.16-4.435 1.002-6.941zm-5.374 3.08l-4.544 5.25a.656.656 0 01-.468.227h-.027a.656.656 0 01-.46-.187L5.76 9.96a.656.656 0 11.92-.938l1.517 1.489 4.089-4.723a.656.656 0 11.992.86z"/></svg><svg viewBox="0 0 21 21" id="instagram" xmlns="http://www.w3.org/2000/svg"><g clip-path="url(#cclip0_2_6083)"><path d="M19.714 4.33a3.652 3.652 0 00-3.244-3.243 60.58 60.58 0 00-12.882 0A3.652 3.652 0 00.343 4.33a60.58 60.58 0 000 12.882 3.652 3.652 0 003.244 3.244c4.29.458 8.593.458 12.883 0a3.652 3.652 0 003.244-3.244c.458-4.29.458-8.592 0-12.882z"/><path d="M18.623 5.056a3.24 3.24 0 00-2.879-2.878 53.779 53.779 0 00-11.431 0 3.241 3.241 0 00-2.879 2.878 53.776 53.776 0 000 11.431 3.24 3.24 0 002.879 2.88c3.807.406 7.624.406 11.43 0a3.24 3.24 0 002.88-2.88 53.753 53.753 0 000-11.43z"/><path d="M.3 16.797l.043.416a3.652 3.652 0 003.245 3.244c4.29.458 8.592.458 12.882 0a3.652 3.652 0 003.244-3.244l.043-.416H.3z"/><path d="M19.714 17.213c.246-2.305.36-4.614.341-6.922L15.47 5.706c-.572-.654-1.409-1.062-2.392-1.097a86.373 86.373 0 00-6.071 0c-1.68.058-2.854 1.187-3.155 2.846-.053.293-.085.59-.127.884v4.864c.023.157.057.314.068.473.067 1.009.482 1.873 1.146 2.458l4.665 4.665a60.62 60.62 0 006.866-.342 3.652 3.652 0 003.244-3.244z"/><path d="M19.714 17.213a3.652 3.652 0 01-3.244 3.244 60.686 60.686 0 01-6.866.342L4.946 16.14c.54.473 1.244.76 2.06.792 2.022.076 4.05.074 6.072 0 1.829-.065 3.152-1.419 3.209-3.247.06-1.941.06-3.888 0-5.829-.026-.843-.322-1.585-.813-2.147l4.581 4.582a60.71 60.71 0 01-.341 6.922z"/><path d="M12.396 8.6a3.213 3.213 0 10-4.539 4.538l7.433 7.433c.393-.034.787-.072 1.18-.114a3.652 3.652 0 003.244-3.244c.042-.393.08-.787.114-1.18L12.396 8.6zM20.018 12.932l-5.982-5.981a.762.762 0 10-1.07 1.07l6.945 6.944c.047-.677.083-1.355.107-2.033z"/><path d="M3.725 8.34c.042-.296.074-.592.127-.885.3-1.66 1.475-2.788 3.155-2.846 2.021-.07 4.05-.073 6.071 0 1.828.066 3.151 1.419 3.209 3.247a93.16 93.16 0 010 5.83c-.058 1.828-1.38 3.18-3.209 3.247-2.021.073-4.05.075-6.071-.001-1.828-.069-3.092-1.425-3.214-3.256-.01-.159-.045-.316-.068-.473V8.338zm6.305 7.51c.926 0 1.852.027 2.776-.007 1.448-.054 2.34-.918 2.373-2.366.042-1.803.042-3.609 0-5.413-.034-1.447-.925-2.331-2.373-2.362a130.992 130.992 0 00-5.516 0c-1.437.03-2.331.897-2.37 2.328-.05 1.826-.05 3.656 0 5.482.039 1.43.933 2.278 2.37 2.33.912.035 1.827.007 2.74.007z"/><path d="M3.725 8.34c.042-.296.074-.592.127-.885.3-1.66 1.475-2.788 3.155-2.846 2.021-.07 4.05-.073 6.071 0 1.828.066 3.151 1.419 3.209 3.247a93.16 93.16 0 010 5.83c-.058 1.828-1.38 3.18-3.209 3.247-2.021.073-4.05.075-6.071-.001-1.828-.069-3.092-1.425-3.214-3.256-.01-.159-.045-.316-.068-.473V8.338zm6.305 7.51c.926 0 1.852.027 2.776-.007 1.448-.054 2.34-.918 2.373-2.366.042-1.803.042-3.609 0-5.413-.034-1.447-.925-2.331-2.373-2.362a130.992 130.992 0 00-5.516 0c-1.437.03-2.331.897-2.37 2.328-.05 1.826-.05 3.656 0 5.482.039 1.43.933 2.278 2.37 2.33.912.035 1.827.007 2.74.007z"/><path d="M10.029 7.56a3.213 3.213 0 100 6.425 3.213 3.213 0 000-6.425zm0 5.319a2.106 2.106 0 110-4.213 2.106 2.106 0 010 4.213zM14.193 7.413a.764.764 0 11-1.528 0 .764.764 0 011.528 0z"/></g><defs><linearGradient id="cpaint1_linear_2_6083" x1="7.693" y1="9.458" x2="-26.287" y2="-9.655" gradientUnits="userSpaceOnUse"><stop stop-color="#A1B5D8" stop-opacity="0"/><stop offset=".309" stop-color="#90A2BD" stop-opacity=".31"/><stop offset=".755" stop-color="#7C8B9C" stop-opacity=".757"/><stop offset="1" stop-color="#748290"/></linearGradient><linearGradient id="cpaint2_linear_2_6083" x1="10.029" y1="18.448" x2="10.029" y2="21.575" gradientUnits="userSpaceOnUse"><stop stop-color="#FAE100" stop-opacity="0"/><stop offset=".307" stop-color="#FCA800" stop-opacity=".306"/><stop offset=".627" stop-color="#FE7300" stop-opacity=".627"/><stop offset=".869" stop-color="#FF5200" stop-opacity=".867"/><stop offset="1" stop-color="#FF4500"/></linearGradient><linearGradient id="cpaint3_linear_2_6083" x1="8.888" y1="9.602" x2="3.924" y2="4.639" gradientUnits="userSpaceOnUse"><stop stop-color="#833AB4" stop-opacity="0"/><stop offset="1" stop-color="#833AB4"/></linearGradient><linearGradient id="cpaint4_linear_2_6083" x1="13.746" y1="19.088" x2="11.269" y2="7.408" gradientUnits="userSpaceOnUse"><stop stop-color="#833AB4" stop-opacity="0"/><stop offset="1" stop-color="#833AB4"/></linearGradient><linearGradient id="cpaint5_linear_2_6083" x1="14.689" y1="15.432" x2="4.738" y2="5.481" gradientUnits="userSpaceOnUse"><stop stop-color="#833AB4" stop-opacity="0"/><stop offset="1" stop-color="#833AB4"/></linearGradient><linearGradient id="cpaint6_linear_2_6083" x1="15.427" y1="9.411" x2="12.136" y2="6.12" gradientUnits="userSpaceOnUse"><stop stop-color="#833AB4" stop-opacity="0"/><stop offset="1" stop-color="#833AB4"/></linearGradient><linearGradient id="cpaint7_linear_2_6083" x1="14.011" y1="6.817" x2="5.897" y2="14.931" gradientUnits="userSpaceOnUse"><stop stop-color="#833AB4"/><stop offset=".092" stop-color="#9C3495"/><stop offset=".293" stop-color="#DC2546"/><stop offset=".392" stop-color="#FD1D1D"/><stop offset=".559" stop-color="#FC6831"/><stop offset=".689" stop-color="#FC9B40"/><stop offset=".752" stop-color="#FCAF45"/><stop offset=".781" stop-color="#FDB750"/><stop offset=".866" stop-color="#FECB6A"/><stop offset=".942" stop-color="#FFD87A"/><stop offset="1" stop-color="#FFDC80"/></linearGradient><radialGradient id="cpaint0_radial_2_6083" cx="0" cy="0" r="1" gradientUnits="userSpaceOnUse" gradientTransform="translate(4.112 18.271) scale(22.1195)"><stop stop-color="#FAE100"/><stop offset=".054" stop-color="#FADC04"/><stop offset=".117" stop-color="#FBCE0E"/><stop offset=".183" stop-color="#FCB720"/><stop offset=".251" stop-color="#FE9838"/><stop offset=".305" stop-color="#FF7950"/><stop offset=".492" stop-color="#FF1C74"/><stop offset="1" stop-color="#6C1CD1"/></radialGradient><clipPath id="cclip0_2_6083"><path transform="translate(0 .743)" d="M0 0h20.057v20.057H0z"/></clipPath></defs></svg><svg viewBox="0 0 15 19" id="location" xmlns="http://www.w3.org/2000/svg"><path d="M7.5.313C3.877.313.937 2.958.937 6.218c0 5.25 6.563 12.468 6.563 12.468s6.563-7.218 6.563-12.468c0-3.26-2.94-5.907-6.563-5.907zm0 9.187a2.625 2.625 0 110-5.25 2.625 2.625 0 010 5.25z"/></svg><svg viewBox="0 0 28 18" id="menu" xmlns="http://www.w3.org/2000/svg"><path d="M.5 18h27v-3H.5v3zm0-7.5h27v-3H.5v3zM.5 0v3h27V0H.5z"/></svg><svg viewBox="0 0 2 33" id="menu-divider" xmlns="http://www.w3.org/2000/svg"><path d="M1 0v33"/><defs><linearGradient id="fpaint0_linear_2_6080" x1="1.5" y1="0" x2="1.5" y2="33" gradientUnits="userSpaceOnUse"><stop stop-color="#fff" stop-opacity="0"/><stop offset=".495" stop-color="#929292"/><stop offset="1" stop-color="#fff" stop-opacity="0"/></linearGradient></defs></svg><svg viewBox="0 0 19 19" id="phone" xmlns="http://www.w3.org/2000/svg"><path d="M15.037 18.688c-.8 0-1.925-.29-3.61-1.23-2.047-1.15-3.631-2.21-5.668-4.241-1.964-1.963-2.92-3.233-4.257-5.667C-.01 4.802.249 3.36.536 2.746c.343-.736.85-1.176 1.504-1.613A7.23 7.23 0 013.214.509a9.33 9.33 0 00.114-.05c.203-.09.51-.229.9-.081.26.097.492.297.855.656.746.735 1.764 2.372 2.14 3.176.252.542.419.9.42 1.3 0 .47-.237.832-.524 1.223-.053.074-.107.144-.158.212-.312.41-.38.529-.336.74.092.426.774 1.692 1.895 2.81 1.12 1.119 2.35 1.758 2.777 1.849.221.047.342-.024.765-.348.06-.046.123-.094.189-.142.437-.325.782-.555 1.24-.555h.003c.4 0 .74.173 1.307.458.738.373 2.424 1.378 3.164 2.124.36.363.56.594.658.854.148.39.009.697-.082.902l-.05.113c-.172.409-.382.801-.627 1.172-.436.652-.877 1.157-1.615 1.5-.379.18-.793.27-1.212.266z"/></svg><svg viewBox="0 0 20 19" id="telegram" xmlns="http://www.w3.org/2000/svg"><path d="M10.368 18.968a9.454 9.454 0 009.455-9.456A9.454 9.454 0 0010.368.057 9.454 9.454 0 00.912 9.512a9.454 9.454 0 009.456 9.456zm-5.129-9.66l9.117-3.516c.423-.153.792.103.655.743h.001l-1.552 7.313c-.115.518-.423.644-.854.4l-2.364-1.742-1.14 1.098c-.126.126-.233.232-.477.232l.168-2.405 4.38-3.958c.191-.168-.042-.262-.293-.095l-5.414 3.408-2.334-.728c-.507-.16-.518-.506.107-.75z"/></svg><svg viewBox="0 0 18 20" id="viber" xmlns="http://www.w3.org/2000/svg"><path d="M15.602 12.24c-.274 1.168-1.677 2.62-2.792 2.888-1.46.3-2.931.428-4.401.384a.1.1 0 00-.078.034l-1.369 1.518-1.456 1.613c-.106.12-.293.039-.293-.127v-3.31a.112.112 0 00-.086-.111c-1.116-.269-2.519-1.72-2.793-2.889a17.114 17.114 0 010-6.81c.274-1.167 1.677-2.619 2.792-2.887a18.984 18.984 0 017.684 0c1.115.268 2.518 1.72 2.792 2.888.457 2.26.457 4.55 0 6.81z"/><path fill-rule="evenodd" clip-rule="evenodd" d="M17.085 5.068l-.005-.022c-.41-1.79-2.258-3.71-3.955-4.11l-.02-.004a20.384 20.384 0 00-8.274 0l-.02.004c-1.696.4-3.545 2.32-3.955 4.11l-.005.022a18.858 18.858 0 000 7.535l.005.022c.393 1.713 2.103 3.546 3.738 4.05v1.998c0 .723.816 1.079 1.28.557l1.874-2.105a20.2 20.2 0 005.357-.385l.02-.005c1.697-.4 3.545-2.32 3.955-4.11l.005-.022a18.86 18.86 0 000-7.535zm-4.275 10.06c1.115-.268 2.518-1.72 2.792-2.887.457-2.26.457-4.55 0-6.81-.274-1.168-1.677-2.62-2.792-2.888a18.984 18.984 0 00-7.684 0c-1.115.268-2.518 1.72-2.792 2.888a17.114 17.114 0 000 6.81c.274 1.167 1.677 2.62 2.792 2.887h.001c.05.011.086.057.086.112v3.31c0 .166.187.247.293.127l1.456-1.613 1.369-1.518a.1.1 0 01.078-.034 19.01 19.01 0 004.4-.384z"/><path d="M11.394 13.922c-.171-.057-.335-.095-.486-.164-1.573-.712-3.02-1.632-4.166-3.04C6.091 9.915 5.58 9.01 5.15 8.052c-.204-.454-.377-.926-.552-1.394-.16-.428.075-.87.324-1.192.233-.302.533-.533.858-.704.253-.133.503-.056.689.179.4.507.768 1.04 1.065 1.63.183.361.133.804-.199 1.05-.08.06-.154.13-.229.198a.796.796 0 00-.173.199.59.59 0 00-.033.48c.409 1.228 1.099 2.183 2.23 2.698.182.082.364.178.572.152.35-.045.463-.464.708-.683.239-.213.545-.216.803-.038s.508.37.756.563c.244.19.487.376.712.592.216.209.29.482.169.764-.223.517-.548.948-1.016 1.223-.132.077-.29.102-.439.152zM8.972 4.172c2.057.063 3.746 1.554 4.108 3.775.061.378.083.765.11 1.15.012.161-.072.315-.231.317-.165.002-.24-.149-.25-.31-.021-.32-.036-.641-.076-.958-.213-1.674-1.434-3.059-2.96-3.356-.229-.044-.463-.056-.696-.083-.147-.017-.34-.026-.372-.226a.267.267 0 01.248-.309c.04-.002.08 0 .12 0z"/><path d="M12.098 8.598c-.003.028-.005.094-.02.156-.055.226-.368.254-.44.026a.736.736 0 01-.025-.217c0-.476-.095-.951-.315-1.365a2.424 2.424 0 00-.975-1 2.633 2.633 0 00-.777-.26c-.117-.022-.236-.035-.354-.053-.142-.021-.219-.12-.212-.274.006-.144.103-.248.246-.239.472.03.928.14 1.348.384.853.493 1.34 1.272 1.483 2.313.006.047.016.094.02.141.008.117.013.234.02.388-.002.028-.007-.154 0 0z"/><path d="M10.819 8.544c-.172.003-.264-.101-.282-.273-.013-.12-.022-.242-.049-.36a1.024 1.024 0 00-.34-.584.861.861 0 00-.278-.146c-.127-.04-.258-.03-.384-.063a.256.256 0 01-.19-.298.252.252 0 01.26-.217c.798.063 1.367.513 1.449 1.539.005.072.012.149-.003.218-.025.118-.105.178-.183.184-.172.003.078-.006 0 0z"/></svg><svg viewBox="0 0 21 21" id="vk" xmlns="http://www.w3.org/2000/svg"><path d="M10.6 20.8c5.744 0 10.4-4.656 10.4-10.4C21 4.656 16.344 0 10.6 0 4.856 0 .2 4.656.2 10.4c0 5.744 4.656 10.4 10.4 10.4z"/><path fill-rule="evenodd" clip-rule="evenodd" d="M10.207 14.961h.816s.247-.027.373-.163c.116-.124.112-.358.112-.358s-.016-1.096.492-1.257c.502-.159 1.145 1.059 1.827 1.527.516.354.908.276.908.276l1.823-.025s.954-.059.502-.809c-.037-.061-.263-.555-1.356-1.569-1.143-1.061-.99-.89.387-2.725.84-1.118 1.174-1.801 1.07-2.093-.1-.279-.717-.205-.717-.205l-2.053.013s-.153-.021-.266.046a.575.575 0 00-.181.22s-.325.866-.758 1.602c-.915 1.552-1.28 1.634-1.43 1.538-.347-.225-.26-.903-.26-1.384 0-1.505.228-2.132-.445-2.295-.223-.054-.387-.09-.958-.095-.733-.008-1.353.002-1.704.174-.234.115-.414.37-.304.384.135.018.443.083.606.305.21.286.203.93.203.93s.12 1.77-.283 1.99c-.276.151-.656-.157-1.471-1.565-.418-.722-.733-1.52-.733-1.52s-.061-.149-.17-.228c-.131-.097-.315-.128-.315-.128l-1.951.013s-.293.008-.4.136c-.096.113-.008.347-.008.347s1.527 3.574 3.257 5.375c1.586 1.652 3.387 1.543 3.387 1.543z"/></svg><svg viewBox="0 0 19 18" id="whatsapp" xmlns="http://www.w3.org/2000/svg"><path d="M9.503.428h-.005C4.566.428.556 4.24.556 8.925c0 1.86.63 3.582 1.703 4.98l-1.115 3.158 3.438-1.044a9.203 9.203 0 004.92 1.404c4.932 0 8.943-3.812 8.943-8.498 0-4.685-4.01-8.497-8.942-8.497z"/><path d="M14.707 12.427c-.216.579-1.072 1.06-1.755 1.2-.467.094-1.078.17-3.133-.64-2.628-1.035-4.321-3.572-4.453-3.737-.126-.164-1.062-1.343-1.062-2.563 0-1.22.652-1.813.914-2.068.216-.209.573-.305.915-.305.11 0 .21.006.3.01.262.01.394.026.567.42.216.493.742 1.713.804 1.838.064.125.128.295.038.46-.083.17-.157.245-.29.39-.131.144-.256.255-.388.41-.121.135-.257.28-.105.529.152.244.677 1.059 1.45 1.713 1 .845 1.809 1.114 2.098 1.229.216.085.473.065.63-.095.201-.205.448-.544.7-.879.179-.24.404-.27.641-.185.242.08 1.52.68 1.783.804.262.126.436.185.5.29.062.105.062.6-.154 1.18z"/></svg></svg>