<svg width="25" height="25" viewBox="0 0 25 25" fill="none" xmlns="http://www.w3.org/2000/svg">
<g clip-path="url(#clip0_2_5758)">
<path d="M12.5 23.1769C6.61251 23.1769 1.82293 18.3873 1.82293 12.4998C1.82293 6.61234 6.61251 1.82275 12.5 1.82275C18.3875 1.82275 23.1771 6.61234 23.1771 12.4998C23.1771 18.3873 18.3875 23.1769 12.5 23.1769ZM12.5 3.90609C7.76147 3.90609 3.90626 7.7613 3.90626 12.4998C3.90626 17.2384 7.76147 21.0936 12.5 21.0936C17.2385 21.0936 21.0938 17.2384 21.0938 12.4998C21.0938 7.7613 17.2385 3.90609 12.5 3.90609Z" fill="white"/>
<path d="M12.5 5.72917C11.925 5.72917 11.4583 5.2625 11.4583 4.6875V1.04167C11.4583 0.466667 11.925 0 12.5 0C13.075 0 13.5417 0.466667 13.5417 1.04167V4.6875C13.5417 5.2625 13.075 5.72917 12.5 5.72917Z" fill="white"/>
<path d="M23.9583 13.5418H20.3125C19.7375 13.5418 19.2708 13.0752 19.2708 12.5002C19.2708 11.9252 19.7375 11.4585 20.3125 11.4585H23.9583C24.5333 11.4585 25 11.9252 25 12.5002C25 13.0752 24.5333 13.5418 23.9583 13.5418Z" fill="white"/>
<path d="M12.5 25.0002C11.925 25.0002 11.4583 24.5335 11.4583 23.9585V20.3127C11.4583 19.7377 11.925 19.271 12.5 19.271C13.075 19.271 13.5417 19.7377 13.5417 20.3127V23.9585C13.5417 24.5335 13.075 25.0002 12.5 25.0002Z" fill="white"/>
<path d="M4.68749 13.5418H1.04166C0.466659 13.5418 -7.62939e-06 13.0752 -7.62939e-06 12.5002C-7.62939e-06 11.9252 0.466659 11.4585 1.04166 11.4585H4.68749C5.26249 11.4585 5.72916 11.9252 5.72916 12.5002C5.72916 13.0752 5.26249 13.5418 4.68749 13.5418Z" fill="white"/>
<path d="M12.5 15.625C10.7771 15.625 9.375 14.2229 9.375 12.5C9.375 10.7771 10.7771 9.375 12.5 9.375C14.2229 9.375 15.625 10.7771 15.625 12.5C15.625 14.2229 14.2229 15.625 12.5 15.625ZM12.5 11.4583C11.926 11.4583 11.4583 11.926 11.4583 12.5C11.4583 13.074 11.926 13.5417 12.5 13.5417C13.074 13.5417 13.5417 13.074 13.5417 12.5C13.5417 11.926 13.074 11.4583 12.5 11.4583Z" fill="white"/>
</g>
<defs>
<clipPath id="clip0_2_5758">
<rect width="25" height="25" fill="white"/>
</clipPath>
</defs>
</svg>
