<svg width="20" height="20" viewBox="0 0 20 20" fill="none" xmlns="http://www.w3.org/2000/svg">
<path d="M15.625 18.75C15.4721 18.7504 15.3244 18.6949 15.2098 18.5937L10 13.9613L4.79024 18.5937C4.70008 18.6739 4.58866 18.7262 4.46942 18.7445C4.35017 18.7627 4.22821 18.746 4.11823 18.6964C4.00825 18.6469 3.91497 18.5666 3.84963 18.4652C3.78429 18.3638 3.74969 18.2456 3.75 18.125V3.75C3.75073 3.08718 4.01435 2.45172 4.48303 1.98303C4.95172 1.51435 5.58718 1.25072 6.25 1.25H13.75C14.4128 1.25072 15.0483 1.51435 15.517 1.98303C15.9857 2.45172 16.2493 3.08718 16.25 3.75V18.125C16.25 18.2908 16.1842 18.4497 16.0669 18.5669C15.9497 18.6842 15.7908 18.75 15.625 18.75Z" fill="#3B3C44"/>
</svg>
