<svg width="19" height="19" viewBox="0 0 19 19" fill="none" xmlns="http://www.w3.org/2000/svg">
<path d="M9.5 0.96875C4.78854 0.96875 0.96875 4.78854 0.96875 9.5C0.96875 14.2041 4.79633 18.0312 9.5 18.0312C14.2111 18.0312 18.0312 14.2111 18.0312 9.5C18.0312 4.79592 14.2041 0.96875 9.5 0.96875ZM13.9297 10.8125H9.00781C8.9643 10.8125 8.92257 10.7952 8.8918 10.7644C8.86103 10.7337 8.84375 10.6919 8.84375 10.6484V3.75781C8.84375 3.7143 8.86103 3.67257 8.8918 3.6418C8.92257 3.61103 8.9643 3.59375 9.00781 3.59375H9.99219C10.0357 3.59375 10.0774 3.61103 10.1082 3.6418C10.139 3.67257 10.1562 3.7143 10.1562 3.75781V9.5H13.9297C13.9732 9.5 14.0149 9.51728 14.0457 9.54805C14.0765 9.57882 14.0938 9.62055 14.0938 9.66406V10.6484C14.0938 10.6919 14.0765 10.7337 14.0457 10.7644C14.0149 10.7952 13.9732 10.8125 13.9297 10.8125Z" fill="#1C4F8B"/>
</svg>
