<svg width="1920" height="1294" viewBox="0 0 1920 1294" fill="none" xmlns="http://www.w3.org/2000/svg">
<path d="M-11 1205V107.5L-36 48C-18 53.6667 25.4 66 55 70C92 75 188.5 48 244 48C299.5 48 425.5 83.5 483 83.5C540.5 83.5 708.99 48 759 48C807.5 48 1093.96 83.5 1139.5 83.5C1244.5 83.5 1352 48 1456.5 48C1561 48 1694.34 77.4177 1735 70C1809 56.5 1879.5 29 1926 0V1255.5C1926 1255.5 1772.91 1279.24 1674 1281.5C1546.9 1284.41 1476.63 1255.69 1349.5 1255.5C1257.59 1255.37 1205.93 1277.95 1114.5 1268.5C1058.62 1262.73 1029.45 1245.04 973.5 1240C872.154 1230.87 816.223 1271.09 714.5 1268.5C620.528 1266.11 570.482 1230.56 476.5 1232.5C368.128 1234.74 313.242 1304.38 205.5 1292.5C114.857 1282.5 -11 1205 -11 1205Z" fill="#ECF1F7"/>
</svg>
