<svg width="19" height="19" viewBox="0 0 19 19" fill="none" xmlns="http://www.w3.org/2000/svg">
<path d="M18.6494 3.56751C18.6401 3.42091 18.5819 3.28166 18.4841 3.17205C18.3863 3.06244 18.2546 2.98881 18.11 2.96294C14.5622 2.32637 13.0811 1.86618 9.7703 0.370748C9.68536 0.332357 9.59322 0.3125 9.5 0.3125C9.40679 0.3125 9.31465 0.332357 9.22971 0.370748C5.91893 1.86618 4.43785 2.32637 0.890002 2.96294C0.745409 2.98881 0.613676 3.06244 0.51589 3.17205C0.418104 3.28166 0.359918 3.42091 0.350647 3.56751C0.192737 6.07397 0.529475 8.4094 1.35266 10.509C2.02676 12.2216 3.02438 13.7883 4.29102 15.1237C6.48412 17.4505 8.81258 18.4611 9.25678 18.6399C9.41463 18.7038 9.59112 18.7038 9.74897 18.6399C10.1932 18.4611 12.5216 17.4505 14.7147 15.1237C15.9793 13.7879 16.975 12.2211 17.6474 10.509C18.4705 8.4094 18.8073 6.07397 18.6494 3.56751ZM13.2763 6.64819L8.73178 11.8982C8.67335 11.9659 8.60169 12.0209 8.52121 12.0599C8.44074 12.0989 8.35314 12.1211 8.26379 12.125H8.23672C8.06497 12.125 7.90004 12.0578 7.77735 11.9376L5.75938 9.96061C5.69781 9.90029 5.64873 9.82842 5.61494 9.74913C5.58115 9.66984 5.5633 9.58466 5.56243 9.49847C5.56066 9.3244 5.62811 9.15676 5.74995 9.03243C5.87178 8.90809 6.03801 8.83725 6.21208 8.83548C6.38615 8.83371 6.55379 8.90116 6.67813 9.02299L8.19571 10.5115L12.285 5.78932C12.3414 5.72415 12.41 5.67072 12.4871 5.63209C12.5641 5.59346 12.648 5.57038 12.734 5.56417C12.8199 5.55796 12.9063 5.56875 12.9881 5.59591C13.0699 5.62307 13.1455 5.66607 13.2107 5.72247C13.2759 5.77886 13.3293 5.84754 13.3679 5.92458C13.4066 6.00162 13.4296 6.08552 13.4358 6.17148C13.442 6.25744 13.4313 6.34379 13.4041 6.42558C13.3769 6.50737 13.3339 6.58302 13.2775 6.64819H13.2763Z" fill="#1C4F8B"/>
</svg>
