<svg width="45" height="45" viewBox="0 0 45 45" fill="none" xmlns="http://www.w3.org/2000/svg">
<path d="M30.7028 6.09346C32.8766 6.09995 34.9595 6.96635 36.4966 8.50344C38.0336 10.0405 38.9001 12.1234 38.9065 14.2972V30.7028C38.9001 32.8766 38.0336 34.9595 36.4966 36.4966C34.9595 38.0336 32.8766 38.9001 30.7028 38.9065H14.2972C12.1234 38.9001 10.0405 38.0336 8.50344 36.4966C6.96635 34.9595 6.09995 32.8766 6.09346 30.7028V14.2972C6.09995 12.1234 6.96635 10.0405 8.50344 8.50344C10.0405 6.96635 12.1234 6.09995 14.2972 6.09346H30.7028ZM30.7028 2.8125H14.2972C7.98047 2.8125 2.8125 7.98047 2.8125 14.2972V30.7028C2.8125 37.0195 7.98047 42.1875 14.2972 42.1875H30.7028C37.0195 42.1875 42.1875 37.0195 42.1875 30.7028V14.2972C42.1875 7.98047 37.0195 2.8125 30.7028 2.8125Z" fill="white"/>
<path d="M33.1638 14.2974C32.677 14.2974 32.2013 14.153 31.7966 13.8826C31.3919 13.6122 31.0764 13.2279 30.8902 12.7782C30.7039 12.3285 30.6552 11.8337 30.7501 11.3563C30.8451 10.8789 31.0795 10.4404 31.4236 10.0963C31.7678 9.75211 32.2063 9.51773 32.6837 9.42278C33.161 9.32782 33.6559 9.37655 34.1055 9.56282C34.5552 9.74908 34.9396 10.0645 35.21 10.4692C35.4804 10.8739 35.6247 11.3497 35.6247 11.8364C35.6254 12.1598 35.5622 12.4801 35.4388 12.779C35.3154 13.0779 35.1341 13.3495 34.9055 13.5781C34.6768 13.8068 34.4052 13.988 34.1064 14.1115C33.8075 14.2349 33.4871 14.2981 33.1638 14.2974ZM22.5 15.9374C23.798 15.9374 25.0669 16.3223 26.1461 17.0434C27.2253 17.7646 28.0665 18.7895 28.5632 19.9887C29.06 21.1879 29.1899 22.5075 28.9367 23.7805C28.6835 25.0536 28.0584 26.223 27.1406 27.1408C26.2228 28.0586 25.0534 28.6837 23.7803 28.9369C22.5073 29.1901 21.1877 29.0601 19.9885 28.5634C18.7893 28.0667 17.7644 27.2255 17.0432 26.1463C16.3221 25.067 15.9372 23.7982 15.9372 22.5002C15.9391 20.7602 16.6311 19.092 17.8615 17.8617C19.0918 16.6313 20.76 15.9393 22.5 15.9374ZM22.5 12.6564C20.5531 12.6564 18.6499 13.2338 17.0311 14.3154C15.4123 15.3971 14.1506 16.9344 13.4056 18.7332C12.6605 20.5319 12.4656 22.5111 12.8454 24.4206C13.2252 26.3301 14.1627 28.0841 15.5394 29.4608C16.9161 30.8375 18.6701 31.775 20.5796 32.1548C22.4891 32.5346 24.4683 32.3397 26.267 31.5946C28.0658 30.8496 29.6031 29.5879 30.6848 27.9691C31.7664 26.3503 32.3438 24.4471 32.3438 22.5002C32.3438 19.8895 31.3066 17.3857 29.4606 15.5396C27.6145 13.6936 25.1107 12.6564 22.5 12.6564Z" fill="white"/>
</svg>
