<svg width="21" height="21" viewBox="0 0 21 21" fill="none" xmlns="http://www.w3.org/2000/svg">
<g clip-path="url(#clip0_2_6083)">
<path d="M19.7137 4.33065C19.5312 2.62015 18.1803 1.26895 16.4696 1.08655C12.1798 0.628702 7.87736 0.628702 3.58764 1.08655C1.87699 1.26911 0.525943 2.62015 0.343385 4.33065C-0.114462 8.62037 -0.114462 12.9229 0.343385 17.2126C0.525943 18.9233 1.87699 20.2743 3.58749 20.4569C7.8772 20.9148 12.1798 20.9148 16.4696 20.4569C18.1803 20.2743 19.5312 18.9233 19.7137 17.2126C20.1716 12.9229 20.1716 8.62052 19.7137 4.33065Z" fill="url(#paint0_radial_2_6083)"/>
<path d="M18.6227 5.05648C18.4608 3.53863 17.2621 2.33969 15.7441 2.17764C11.9374 1.77152 8.1195 1.77152 4.31289 2.17764C2.79504 2.33969 1.5961 3.53863 1.43405 5.05648C1.02792 8.8631 1.02792 12.681 1.43405 16.4875C1.5961 18.0055 2.79504 19.2044 4.31289 19.3663C8.1195 19.7726 11.9374 19.7726 15.7439 19.3663C17.2619 19.2044 18.4608 18.0055 18.6227 16.4875C19.029 12.681 19.029 8.8631 18.6227 5.05648Z" fill="url(#paint1_linear_2_6083)"/>
<path d="M0.300629 16.7969C0.314401 16.9355 0.328632 17.0742 0.343475 17.2128C0.526033 18.9233 1.87708 20.2743 3.58773 20.4569C7.87745 20.9147 12.18 20.9147 16.4697 20.4569C18.1804 20.2743 19.5313 18.9233 19.7138 17.2128C19.7287 17.0742 19.7429 16.9355 19.7568 16.7969H0.300629Z" fill="url(#paint2_linear_2_6083)"/>
<path d="M19.7138 17.2128C19.9598 14.9078 20.0734 12.5992 20.055 10.2908L15.4704 5.70622C14.8977 5.05235 14.0611 4.64424 13.0781 4.60889C11.0565 4.53605 9.02844 4.53972 7.00654 4.60919C5.32726 4.66704 4.15295 5.79574 3.8518 7.45467C3.7987 7.74756 3.76687 8.04427 3.7251 8.3393V13.2027C3.7482 13.3603 3.78218 13.5172 3.79273 13.6757C3.86006 14.6847 4.27476 15.549 4.93873 16.1337L9.60412 20.7989C11.8937 20.815 14.1834 20.7012 16.4697 20.4571C18.1803 20.2745 19.5312 18.9235 19.7138 17.2128Z" fill="url(#paint3_linear_2_6083)"/>
<path d="M19.7138 17.2127C19.5314 18.923 18.1801 20.2744 16.4697 20.4568C14.1837 20.7007 11.8936 20.8147 9.60433 20.7987L4.94598 16.1403C5.486 16.613 6.18991 16.9008 7.00675 16.9316C9.0282 17.0075 11.0567 17.0055 13.0781 16.9327C14.9065 16.8666 16.2295 15.5134 16.2866 13.685C16.3475 11.7438 16.3475 9.79747 16.2866 7.85621C16.2606 7.01275 15.9645 6.27058 15.4736 5.70898L20.0552 10.2907C20.0733 12.5987 19.9598 14.9077 19.7138 17.2127Z" fill="url(#paint4_linear_2_6083)"/>
<path d="M12.3955 8.5998C11.8082 7.96031 10.9655 7.55908 10.0288 7.55908C8.25465 7.55908 6.81622 8.99751 6.81622 10.7717C6.81622 11.7083 7.21745 12.551 7.85694 13.1383L15.2898 20.5711C15.6832 20.5369 16.0766 20.4988 16.4697 20.4568C18.1804 20.2743 19.5314 18.9232 19.714 17.2126C19.7559 16.8195 19.794 16.426 19.8283 16.0326L12.3955 8.5998Z" fill="url(#paint5_linear_2_6083)"/>
<path d="M20.0183 12.9324L14.0363 6.95051C13.8967 6.76734 13.6768 6.64844 13.4288 6.64844C13.0067 6.64844 12.6644 6.9906 12.6644 7.41279C12.6644 7.66084 12.7833 7.88074 12.9665 8.02029L19.9113 14.9653C19.9584 14.2878 19.9941 13.6101 20.0183 12.9324Z" fill="url(#paint6_linear_2_6083)"/>
<path d="M3.7251 8.3393C3.76687 8.04427 3.7987 7.74756 3.8518 7.45467C4.1528 5.79574 5.32726 4.66704 7.00654 4.60919C9.02844 4.53972 11.0565 4.53605 13.0781 4.60889C14.9058 4.67469 16.2294 6.02803 16.2865 7.85636C16.3473 9.79777 16.3473 11.7439 16.2865 13.6853C16.2294 15.5137 14.9062 16.8669 13.0782 16.9328C11.0566 17.0058 9.02814 17.0076 7.00669 16.9317C5.17867 16.863 3.915 15.5066 3.79273 13.6755C3.78218 13.5172 3.7482 13.3602 3.7251 13.2025C3.7251 11.5814 3.7251 9.96028 3.7251 8.3393ZM10.0303 15.8492C10.9555 15.8492 11.8816 15.8769 12.8055 15.8428C14.2542 15.7891 15.1453 14.9245 15.1791 13.4772C15.221 11.6738 15.221 9.86801 15.1791 8.06447C15.1453 6.61748 14.2536 5.73269 12.8055 5.70194C10.9676 5.66307 9.1276 5.66338 7.28963 5.70194C5.85259 5.73208 4.95893 6.59896 4.91991 8.03004C4.87033 9.85623 4.87033 11.6856 4.91991 13.5118C4.95893 14.9427 5.85259 15.7896 7.28979 15.8428C8.20211 15.8768 9.11674 15.8492 10.0303 15.8492Z" fill="url(#paint7_linear_2_6083)"/>
<path d="M3.7251 8.3393C3.76687 8.04427 3.7987 7.74756 3.8518 7.45467C4.1528 5.79574 5.32726 4.66704 7.00654 4.60919C9.02844 4.53972 11.0565 4.53605 13.0781 4.60889C14.9058 4.67469 16.2294 6.02803 16.2865 7.85636C16.3473 9.79777 16.3473 11.7439 16.2865 13.6853C16.2294 15.5137 14.9062 16.8669 13.0782 16.9328C11.0566 17.0058 9.02814 17.0076 7.00669 16.9317C5.17867 16.863 3.915 15.5066 3.79273 13.6755C3.78218 13.5172 3.7482 13.3602 3.7251 13.2025C3.7251 11.5814 3.7251 9.96028 3.7251 8.3393ZM10.0303 15.8492C10.9555 15.8492 11.8816 15.8769 12.8055 15.8428C14.2542 15.7891 15.1453 14.9245 15.1791 13.4772C15.221 11.6738 15.221 9.86801 15.1791 8.06447C15.1453 6.61748 14.2536 5.73269 12.8055 5.70194C10.9676 5.66307 9.1276 5.66338 7.28963 5.70194C5.85259 5.73208 4.95893 6.59896 4.91991 8.03004C4.87033 9.85623 4.87033 11.6856 4.91991 13.5118C4.95893 14.9427 5.85259 15.7896 7.28979 15.8428C8.20211 15.8768 9.11674 15.8492 10.0303 15.8492Z" fill="white"/>
<path d="M10.0288 7.55957C8.25465 7.55957 6.81622 8.99784 6.81622 10.772C6.81622 12.5463 8.25465 13.9846 10.0288 13.9846C11.8031 13.9846 13.2414 12.5463 13.2414 10.772C13.2414 8.99784 11.8031 7.55957 10.0288 7.55957ZM10.0288 12.8785C8.86536 12.8785 7.92228 11.9354 7.92228 10.772C7.92228 9.60856 8.86536 8.66547 10.0288 8.66547C11.1922 8.66547 12.1353 9.60856 12.1353 10.772C12.1353 11.9354 11.1922 12.8785 10.0288 12.8785Z" fill="white"/>
<path d="M14.193 7.41279C14.193 7.83483 13.8509 8.17699 13.4288 8.17699C13.0068 8.17699 12.6645 7.83483 12.6645 7.41279C12.6645 6.9906 13.0068 6.64844 13.4288 6.64844C13.8509 6.64844 14.193 6.9906 14.193 7.41279Z" fill="white"/>
</g>
<defs>
<radialGradient id="paint0_radial_2_6083" cx="0" cy="0" r="1" gradientUnits="userSpaceOnUse" gradientTransform="translate(4.1116 18.2715) scale(22.1195)">
<stop stop-color="#FAE100"/>
<stop offset="0.0544" stop-color="#FADC04"/>
<stop offset="0.1167" stop-color="#FBCE0E"/>
<stop offset="0.1829" stop-color="#FCB720"/>
<stop offset="0.2514" stop-color="#FE9838"/>
<stop offset="0.3054" stop-color="#FF7950"/>
<stop offset="0.4922" stop-color="#FF1C74"/>
<stop offset="1" stop-color="#6C1CD1"/>
</radialGradient>
<linearGradient id="paint1_linear_2_6083" x1="7.69263" y1="9.45815" x2="-26.2865" y2="-9.65512" gradientUnits="userSpaceOnUse">
<stop stop-color="#A1B5D8" stop-opacity="0"/>
<stop offset="0.3094" stop-color="#90A2BD" stop-opacity="0.309804"/>
<stop offset="0.7554" stop-color="#7C8B9C" stop-opacity="0.756863"/>
<stop offset="1" stop-color="#748290"/>
</linearGradient>
<linearGradient id="paint2_linear_2_6083" x1="10.0287" y1="18.4485" x2="10.0287" y2="21.5749" gradientUnits="userSpaceOnUse">
<stop stop-color="#FAE100" stop-opacity="0"/>
<stop offset="0.3068" stop-color="#FCA800" stop-opacity="0.305882"/>
<stop offset="0.6275" stop-color="#FE7300" stop-opacity="0.627451"/>
<stop offset="0.8685" stop-color="#FF5200" stop-opacity="0.866667"/>
<stop offset="1" stop-color="#FF4500"/>
</linearGradient>
<linearGradient id="paint3_linear_2_6083" x1="8.88756" y1="9.60249" x2="3.92374" y2="4.63867" gradientUnits="userSpaceOnUse">
<stop stop-color="#833AB4" stop-opacity="0"/>
<stop offset="1" stop-color="#833AB4"/>
</linearGradient>
<linearGradient id="paint4_linear_2_6083" x1="13.7463" y1="19.0878" x2="11.2687" y2="7.40804" gradientUnits="userSpaceOnUse">
<stop stop-color="#833AB4" stop-opacity="0"/>
<stop offset="1" stop-color="#833AB4"/>
</linearGradient>
<linearGradient id="paint5_linear_2_6083" x1="14.6891" y1="15.432" x2="4.73799" y2="5.48085" gradientUnits="userSpaceOnUse">
<stop stop-color="#833AB4" stop-opacity="0"/>
<stop offset="1" stop-color="#833AB4"/>
</linearGradient>
<linearGradient id="paint6_linear_2_6083" x1="15.427" y1="9.41103" x2="12.1364" y2="6.12038" gradientUnits="userSpaceOnUse">
<stop stop-color="#833AB4" stop-opacity="0"/>
<stop offset="1" stop-color="#833AB4"/>
</linearGradient>
<linearGradient id="paint7_linear_2_6083" x1="14.011" y1="6.81728" x2="5.89741" y2="14.9308" gradientUnits="userSpaceOnUse">
<stop stop-color="#833AB4"/>
<stop offset="0.0922" stop-color="#9C3495"/>
<stop offset="0.2927" stop-color="#DC2546"/>
<stop offset="0.392" stop-color="#FD1D1D"/>
<stop offset="0.5589" stop-color="#FC6831"/>
<stop offset="0.6887" stop-color="#FC9B40"/>
<stop offset="0.7521" stop-color="#FCAF45"/>
<stop offset="0.7806" stop-color="#FDB750"/>
<stop offset="0.8656" stop-color="#FECB6A"/>
<stop offset="0.9415" stop-color="#FFD87A"/>
<stop offset="1" stop-color="#FFDC80"/>
</linearGradient>
<clipPath id="clip0_2_6083">
<rect width="20.0571" height="20.0571" fill="white" transform="translate(0 0.743164)"/>
</clipPath>
</defs>
</svg>
