<svg width="15" height="19" viewBox="0 0 15 19" fill="none" xmlns="http://www.w3.org/2000/svg">
<path d="M7.5 0.3125C3.87709 0.3125 0.9375 2.95842 0.9375 6.21875C0.9375 11.4688 7.5 18.6875 7.5 18.6875C7.5 18.6875 14.0625 11.4688 14.0625 6.21875C14.0625 2.95842 11.1229 0.3125 7.5 0.3125ZM7.5 9.5C6.98082 9.5 6.47331 9.34605 6.04163 9.05761C5.60995 8.76917 5.2735 8.3592 5.07482 7.87954C4.87614 7.39989 4.82415 6.87209 4.92544 6.36289C5.02672 5.85369 5.27673 5.38596 5.64384 5.01884C6.01096 4.65173 6.47869 4.40172 6.98789 4.30044C7.49709 4.19915 8.02489 4.25114 8.50454 4.44982C8.9842 4.6485 9.39417 4.98495 9.68261 5.41663C9.97105 5.84831 10.125 6.35582 10.125 6.875C10.1242 7.57096 9.84743 8.2382 9.35532 8.73032C8.8632 9.22243 8.19596 9.49924 7.5 9.5Z" fill="white"/>
</svg>
