<svg width="19" height="19" viewBox="0 0 19 19" fill="none" xmlns="http://www.w3.org/2000/svg">
<path d="M15.0371 18.6876C14.2365 18.6876 13.1118 18.398 11.4277 17.4571C9.37982 16.3087 7.7958 15.2484 5.75896 13.2169C3.79514 11.2543 2.83947 9.98368 1.50195 7.54981C-0.00906191 4.80177 0.248516 3.3613 0.536446 2.74565C0.879336 2.00983 1.38547 1.56974 2.03967 1.13292C2.41125 0.889466 2.80447 0.680771 3.21436 0.509483C3.25537 0.491846 3.29352 0.47503 3.32756 0.459854C3.53059 0.368389 3.8382 0.230166 4.22785 0.377823C4.48789 0.47544 4.72004 0.675186 5.08344 1.03407C5.82869 1.76907 6.84711 3.40601 7.22281 4.20991C7.47506 4.75173 7.64199 5.10938 7.6424 5.51052C7.6424 5.98015 7.40615 6.34231 7.11945 6.73319C7.06572 6.80661 7.0124 6.87675 6.96072 6.94483C6.64859 7.35499 6.5801 7.47353 6.62522 7.68517C6.71668 8.1105 7.39877 9.37665 8.51973 10.4951C9.64068 11.6136 10.8703 12.2527 11.2973 12.3437C11.518 12.3909 11.639 12.3195 12.0622 11.9963C12.1229 11.95 12.1853 11.902 12.2505 11.854C12.6877 11.5287 13.0331 11.2986 13.4916 11.2986H13.4941C13.8932 11.2986 14.2348 11.4717 14.8009 11.7572C15.5391 12.1296 17.2253 13.1349 17.9648 13.881C18.3245 14.2436 18.5251 14.4749 18.6231 14.7345C18.7708 15.1254 18.6317 15.4318 18.5411 15.6369C18.5259 15.6709 18.5091 15.7082 18.4914 15.7497C18.3188 16.1588 18.1089 16.5512 17.8643 16.9219C17.4283 17.574 16.9866 18.0789 16.2491 18.4222C15.8704 18.6014 15.456 18.6921 15.0371 18.6876Z" fill="white"/>
</svg>
