<svg width="18" height="20" viewBox="0 0 18 20" fill="none" xmlns="http://www.w3.org/2000/svg">
<path d="M15.602 12.2405C15.3283 13.4083 13.9248 14.8601 12.8097 15.1284C11.3499 15.4282 9.87856 15.5563 8.40866 15.5123C8.37943 15.5115 8.35133 15.5237 8.33094 15.5463L6.96225 17.0638L5.50644 18.6774C5.4 18.7972 5.21302 18.7157 5.21302 18.5503V15.2402C5.21302 15.1855 5.17687 15.139 5.12714 15.1285L5.12629 15.1283C4.0112 14.8601 2.60833 13.4082 2.33406 12.2404C1.87789 9.98081 1.87789 7.6902 2.33406 5.43061C2.60833 4.2628 4.0112 2.81095 5.12629 2.54272C7.6758 2.01903 10.2608 2.01903 12.8097 2.54272C13.9254 2.81095 15.3283 4.2628 15.602 5.43061C16.0586 7.69026 16.0586 9.98087 15.602 12.2405Z" fill="#7D3DAF"/>
<path fill-rule="evenodd" clip-rule="evenodd" d="M17.0854 5.06817L17.0803 5.04627C16.6703 3.25624 14.822 1.33543 13.1245 0.935825L13.1054 0.931567C10.3599 0.36591 7.57612 0.36591 4.83119 0.931567L4.81148 0.935825C3.11462 1.33543 1.26628 3.25624 0.85572 5.04627L0.851214 5.06817C0.344354 7.56801 0.344354 10.1031 0.851214 12.603L0.85572 12.6249C1.24876 14.3385 2.95947 16.1711 4.59353 16.675V18.6732C4.59353 19.3964 5.40957 19.7516 5.87363 19.2297L7.74817 17.1253C8.15473 17.1499 8.56151 17.1636 8.96829 17.1636C10.3503 17.1636 11.7329 17.0225 13.1054 16.7396L13.1245 16.7354C14.822 16.3358 16.6703 14.415 17.0803 12.6249L17.0854 12.603C17.5922 10.1031 17.5922 7.56801 17.0854 5.06817ZM12.8097 15.1284C13.9248 14.8601 15.3283 13.4083 15.602 12.2405C16.0586 9.98087 16.0586 7.69026 15.602 5.43061C15.3283 4.2628 13.9254 2.81095 12.8097 2.54272C10.2608 2.01903 7.6758 2.01903 5.12629 2.54272C4.0112 2.81095 2.60833 4.2628 2.33406 5.43061C1.87789 7.6902 1.87789 9.98081 2.33406 12.2404C2.60833 13.4082 4.0112 14.8601 5.12629 15.1283L5.12714 15.1285C5.17687 15.139 5.21302 15.1855 5.21302 15.2402V18.5503C5.21302 18.7157 5.4 18.7972 5.50644 18.6774L6.96225 17.0638L8.33094 15.5463C8.35133 15.5237 8.37943 15.5115 8.40866 15.5123C9.87856 15.5563 11.3499 15.4282 12.8097 15.1284Z" fill="#7D3DAF"/>
<path d="M11.394 13.9222C11.2226 13.8653 11.0592 13.8271 10.9075 13.7583C9.33534 13.0457 7.88842 12.1264 6.7423 10.7171C6.09053 9.91567 5.58041 9.0109 5.14918 8.0534C4.94469 7.59932 4.77236 7.12746 4.5967 6.65868C4.43654 6.23118 4.67245 5.78954 4.92087 5.46744C5.15397 5.16515 5.45392 4.93381 5.77876 4.76331C6.0323 4.63023 6.28241 4.70695 6.46758 4.94174C6.86789 5.44935 7.23558 5.98292 7.53334 6.57131C7.71643 6.93322 7.66619 7.37561 7.33437 7.6219C7.25372 7.68177 7.18023 7.75203 7.1051 7.81965C7.03921 7.87891 6.9772 7.93877 6.93203 8.019C6.84947 8.16581 6.84553 8.33895 6.89869 8.49855C7.3079 9.72714 7.99762 10.6825 9.1295 11.197C9.31061 11.2794 9.49252 11.3752 9.70118 11.3487C10.0506 11.304 10.1638 10.8853 10.4086 10.6665C10.648 10.4527 10.9539 10.4499 11.2117 10.6281C11.4696 10.8064 11.7195 10.9978 11.968 11.1913C12.2119 11.3811 12.4548 11.5669 12.6798 11.7833C12.8961 11.9915 12.9706 12.2646 12.8488 12.547C12.6258 13.0644 12.3013 13.4948 11.8331 13.7695C11.701 13.8469 11.5431 13.872 11.394 13.9222Z" fill="white"/>
<path d="M8.97225 4.17183C11.0287 4.23478 12.7177 5.72579 13.0797 7.94695C13.1414 8.32541 13.1633 8.71236 13.1907 9.09648C13.2023 9.25806 13.1185 9.41157 12.9589 9.41366C12.7941 9.41581 12.7199 9.26513 12.7092 9.10362C12.688 8.78392 12.6733 8.46281 12.633 8.14575C12.4201 6.47212 11.1986 5.0875 9.67381 4.79038C9.44437 4.74564 9.20952 4.73389 8.9771 4.70725C8.83016 4.69039 8.63773 4.68067 8.60517 4.48114C8.57786 4.31384 8.70711 4.18063 8.85292 4.17208C8.89256 4.16968 8.93244 4.17165 8.97225 4.17183Z" fill="white"/>
<path d="M12.0979 8.59785C12.0946 8.6259 12.0928 8.69186 12.0777 8.75401C12.0232 8.97957 11.7101 9.00781 11.6381 8.78016C11.6167 8.7126 11.6135 8.63575 11.6134 8.56302C11.6127 8.08716 11.518 7.6118 11.2984 7.19777C11.0726 6.77225 10.7276 6.41452 10.323 6.19807C10.0784 6.06719 9.81382 5.98585 9.54569 5.93737C9.4285 5.9162 9.31006 5.90334 9.1923 5.88544C9.04959 5.86378 8.97339 5.76441 8.98015 5.61078C8.98646 5.4668 9.08276 5.36325 9.22637 5.37211C9.69831 5.4014 10.1541 5.51283 10.5737 5.75555C11.4269 6.24919 11.9143 7.02839 12.0566 8.06883C12.063 8.11596 12.0733 8.16266 12.0766 8.20997C12.0847 8.32682 12.0897 8.44378 12.0979 8.59785C12.0946 8.6259 12.0897 8.44378 12.0979 8.59785Z" fill="white"/>
<path d="M10.8187 8.5436C10.6466 8.54698 10.5545 8.44294 10.5368 8.2706C10.5245 8.15043 10.5147 8.02867 10.4885 7.91176C10.4368 7.68152 10.3248 7.46815 10.1475 7.32706C10.0638 7.26043 9.96894 7.21188 9.8696 7.18056C9.74339 7.14075 9.61234 7.15171 9.48641 7.11799C9.34968 7.08138 9.27404 6.96042 9.29555 6.82025C9.3151 6.69271 9.42869 6.59315 9.55625 6.60324C10.3535 6.66613 10.9234 7.11645 11.0047 8.14188C11.0104 8.21424 11.0172 8.29072 11.0025 8.35993C10.9773 8.47844 10.897 8.53781 10.8187 8.5436C10.6466 8.54698 10.897 8.53781 10.8187 8.5436Z" fill="white"/>
</svg>
