<svg width="51" height="51" viewBox="0 0 51 51" fill="none" xmlns="http://www.w3.org/2000/svg">
<path fill-rule="evenodd" clip-rule="evenodd" d="M48.2807 13.1484C48.6353 12.0248 48.2807 11.208 46.7118 11.208H41.4953C40.1794 11.208 39.5718 11.9232 39.2172 12.6882C39.2172 12.6882 36.5337 19.2226 32.7864 23.459C31.5712 24.6842 31.0144 25.0926 30.356 25.0926C30.0014 25.0926 29.5451 24.6842 29.5451 23.5616V13.0956C29.5451 11.7688 29.1407 11.1562 28.0261 11.1562H19.8223C19.0114 11.1562 18.5054 11.7688 18.5054 12.3814C18.5054 13.6574 20.3791 13.9642 20.5813 17.5372V25.3008C20.5813 26.9852 20.2825 27.293 19.6191 27.293C17.847 27.293 13.5429 20.7078 10.961 13.2042C10.459 11.718 9.94899 11.1562 8.63215 11.1562H3.3658C1.84676 11.1562 1.59375 11.8704 1.59375 12.6364C1.59375 14.015 3.3658 20.9568 9.84738 30.1448C14.1515 36.4202 20.2785 39.7929 25.7978 39.7929C29.1407 39.7929 29.5451 39.027 29.5451 37.751V33.0036C29.5451 31.4726 29.8489 31.2176 30.9128 31.2176C31.6718 31.2176 33.0394 31.625 36.1283 34.6372C39.6724 38.2102 40.28 39.8438 42.2553 39.8438H47.4708C48.9899 39.8438 49.6991 39.0778 49.2937 37.5976C48.8385 36.1174 47.1162 33.9738 44.888 31.4218C43.6727 29.9934 41.8499 28.4106 41.2931 27.6446C40.534 26.6236 40.7363 26.2152 41.2931 25.2968C41.2423 25.2968 47.6232 16.2104 48.2807 13.1445" fill="white"/>
</svg>
