<svg width="21" height="21" viewBox="0 0 21 21" fill="none" xmlns="http://www.w3.org/2000/svg">
<path d="M10.6 20.8C16.3438 20.8 21 16.1437 21 10.4C21 4.65623 16.3438 0 10.6 0C4.85625 0 0.200012 4.65623 0.200012 10.4C0.200012 16.1437 4.85625 20.8 10.6 20.8Z" fill="#4D76A1"/>
<path fill-rule="evenodd" clip-rule="evenodd" d="M10.2071 14.961H11.0234C11.0234 14.961 11.27 14.934 11.3959 14.7983C11.5117 14.6737 11.508 14.4397 11.508 14.4397C11.508 14.4397 11.4921 13.3444 12.0004 13.1832C12.5015 13.0243 13.145 14.2417 13.8271 14.7098C14.3428 15.0641 14.7347 14.9864 14.7347 14.9864L16.5584 14.961C16.5584 14.961 17.5124 14.9023 17.0601 14.1522C17.023 14.0908 16.7966 13.5973 15.7041 12.5832C14.5606 11.5219 14.7138 11.6936 16.0912 9.85764C16.9301 8.73955 17.2655 8.05695 17.1607 7.76459C17.0608 7.48613 16.4438 7.55973 16.4438 7.55973L14.3905 7.57252C14.3905 7.57252 14.2382 7.55176 14.1253 7.61924C14.015 7.68543 13.944 7.83967 13.944 7.83967C13.944 7.83967 13.619 8.70488 13.1856 9.44069C12.2713 10.9933 11.9057 11.0753 11.7562 10.9789C11.4086 10.7542 11.4954 10.0762 11.4954 9.59457C11.4954 8.08995 11.7236 7.46259 11.051 7.30019C10.8278 7.24624 10.6636 7.21064 10.0927 7.2049C9.36009 7.19729 8.73996 7.20712 8.38883 7.37916C8.15524 7.49355 7.97504 7.74846 8.08479 7.7631C8.2205 7.78127 8.52787 7.84597 8.69083 8.06788C8.90125 8.35413 8.89383 8.99706 8.89383 8.99706C8.89383 8.99706 9.01471 10.7683 8.61148 10.9883C8.3347 11.1392 7.95502 10.8311 7.13986 9.42253C6.72218 8.70099 6.40683 7.90344 6.40683 7.90344C6.40683 7.90344 6.34602 7.75439 6.23757 7.67467C6.10594 7.57808 5.92204 7.54731 5.92204 7.54731L3.97081 7.5601C3.97081 7.5601 3.67789 7.56826 3.57037 7.69562C3.47471 7.8089 3.56277 8.04323 3.56277 8.04323C3.56277 8.04323 5.09038 11.6172 6.82006 13.4182C8.40607 15.0695 10.2071 14.961 10.2071 14.961Z" fill="white"/>
</svg>
