<svg width="19" height="18" viewBox="0 0 19 18" fill="none" xmlns="http://www.w3.org/2000/svg">
<path d="M9.50253 0.428223H9.49806C4.56631 0.428223 0.555847 4.23923 0.555847 8.92545C0.555847 10.7842 1.18643 12.507 2.25865 13.9059L1.14394 17.0626L4.58197 16.0185C5.99631 16.9086 7.68345 17.4227 9.50253 17.4227C14.4343 17.4227 18.4447 13.6106 18.4447 8.92545C18.4447 4.24029 14.4343 0.428223 9.50253 0.428223Z" fill="#4CAF50"/>
<path d="M14.7072 12.4272C14.4914 13.006 13.635 13.4861 12.9519 13.6263C12.4845 13.7209 11.8741 13.7963 9.81908 12.9869C7.19053 11.9524 5.49779 9.41491 5.36586 9.25027C5.23952 9.08564 4.30371 7.90665 4.30371 6.6873C4.30371 5.46795 4.95554 4.87421 5.21828 4.61929C5.43407 4.41005 5.79073 4.31445 6.13285 4.31445C6.24354 4.31445 6.34304 4.31976 6.43249 4.32401C6.69523 4.33463 6.82716 4.3495 7.00046 4.74356C7.21625 5.23746 7.74173 6.45681 7.80434 6.58215C7.86807 6.70748 7.9318 6.87743 7.84236 7.04206C7.7585 7.212 7.68471 7.28742 7.55278 7.43187C7.42085 7.57632 7.29563 7.68679 7.1637 7.84186C7.04295 7.97675 6.90654 8.12121 7.0586 8.37081C7.21066 8.61511 7.73614 9.42978 8.50984 10.0841C9.50826 10.9285 10.3177 11.1983 10.6073 11.313C10.8231 11.3979 11.0802 11.3778 11.2379 11.2184C11.438 11.0134 11.6851 10.6736 11.9367 10.339C12.1156 10.0989 12.3414 10.0692 12.5784 10.1542C12.8199 10.2338 14.0979 10.8339 14.3606 10.9582C14.6234 11.0835 14.7967 11.143 14.8604 11.2482C14.923 11.3533 14.923 11.8472 14.7072 12.4272Z" fill="#FAFAFA"/>
</svg>
